<svg xmlns="http://www.w3.org/2000/svg" xmlns:xlink="http://www.w3.org/1999/xlink" width="397" height="432" contentScriptType="application/ecmascript" contentStyleType="text/css" style="width:397px;height:432px" preserveAspectRatio="none" version="1.1" viewBox="0 0 397 432" zoomAndPan="magnify"><defs><filter id="f2v8cf7tbw1ym" width="300%" height="300%" x="-1" y="-1"><feGaussianBlur result="blurOut" stdDeviation="2"/><feColorMatrix in="blurOut" result="blurOut2" type="matrix" values="0 0 0 0 0 0 0 0 0 0 0 0 0 0 0 0 0 0 .4 0"/><feOffset dx="4" dy="4" in="blurOut2" result="blurOut3"/><feBlend in="SourceGraphic" in2="blurOut3" mode="normal"/></filter></defs><g><ellipse cx="200.5" cy="20" fill="#000" filter="url(#f2v8cf7tbw1ym)" rx="10" ry="10" style="stroke:none;stroke-width:1"/><rect style="stroke:#a80036;stroke-width:1.5" width="243" height="33.969" x="79" y="50" fill="#FEFECE" filter="url(#f2v8cf7tbw1ym)" rx="12.5" ry="12.5"/><text x="89" y="71.139" fill="#000" font-family="sans-serif" font-size="12" lengthAdjust="spacingAndGlyphs" textLength="223">Split input data packet into records</text><rect style="stroke:#a80036;stroke-width:1.5" width="293" height="33.969" x="54" y="191.969" fill="#FEFECE" filter="url(#f2v8cf7tbw1ym)" rx="12.5" ry="12.5"/><text x="64" y="213.107" fill="#000" font-family="sans-serif" font-size="12" lengthAdjust="spacingAndGlyphs" textLength="273">Generate zero, one or many output records</text><polygon fill="#FEFECE" points="139.5 147.969 261.5 147.969 273.5 159.969 261.5 171.969 139.5 171.969 127.5 159.969 139.5 147.969" filter="url(#f2v8cf7tbw1ym)" style="stroke:#a80036;stroke-width:1.5"/><text x="139.5" y="163.777" fill="#000" font-family="sans-serif" font-size="11" lengthAdjust="spacingAndGlyphs" textLength="122">For each input record</text><rect style="stroke:#a80036;stroke-width:1.5" width="184" height="33.969" x="108.5" y="269.938" fill="#FEFECE" filter="url(#f2v8cf7tbw1ym)" rx="12.5" ry="12.5"/><text x="118.5" y="291.076" fill="#000" font-family="sans-serif" font-size="12" lengthAdjust="spacingAndGlyphs" textLength="164">Aggregate output records</text><polygon fill="#FEFECE" points="156.5 103.969 244.5 103.969 256.5 115.969 244.5 127.969 156.5 127.969 144.5 115.969 156.5 103.969" filter="url(#f2v8cf7tbw1ym)" style="stroke:#a80036;stroke-width:1.5"/><text x="156.5" y="119.777" fill="#000" font-family="sans-serif" font-size="11" lengthAdjust="spacingAndGlyphs" textLength="88">For each phase</text><rect style="stroke:#a80036;stroke-width:1.5" width="212" height="33.969" x="94.5" y="345.906" fill="#FEFECE" filter="url(#f2v8cf7tbw1ym)" rx="12.5" ry="12.5"/><text x="104.5" y="367.045" fill="#000" font-family="sans-serif" font-size="12" lengthAdjust="spacingAndGlyphs" textLength="192">Aggregate output data packet</text><ellipse cx="200.5" cy="410.875" fill="#FFF" filter="url(#f2v8cf7tbw1ym)" rx="11" ry="11" style="stroke:#000;stroke-width:1"/><ellipse cx="200.5" cy="410.875" fill="#000" rx="6" ry="6" style="stroke:#7f7f7f;stroke-width:1"/><line style="stroke:#a80036;stroke-width:1.5" x1="200.5" x2="200.5" y1="30" y2="50"/><polygon fill="#A80036" points="196.5 40 200.5 50 204.5 40 200.5 44" style="stroke:#a80036;stroke-width:1"/><line style="stroke:#a80036;stroke-width:1.5" x1="200.5" x2="200.5" y1="171.969" y2="191.969"/><polygon fill="#A80036" points="196.5 181.969 200.5 191.969 204.5 181.969 200.5 185.969" style="stroke:#a80036;stroke-width:1"/><line style="stroke:#a80036;stroke-width:1.5" x1="200.5" x2="200.5" y1="225.938" y2="237.938"/><line style="stroke:#a80036;stroke-width:1.5" x1="200.5" x2="359" y1="237.938" y2="237.938"/><polygon fill="#A80036" points="355 206.953 359 196.953 363 206.953 359 202.953" style="stroke:#a80036;stroke-width:1.5"/><line style="stroke:#a80036;stroke-width:1.5" x1="359" x2="359" y1="159.969" y2="237.938"/><line style="stroke:#a80036;stroke-width:1.5" x1="359" x2="273.5" y1="159.969" y2="159.969"/><polygon fill="#A80036" points="283.5 155.969 273.5 159.969 283.5 163.969 279.5 159.969" style="stroke:#a80036;stroke-width:1"/><line style="stroke:#a80036;stroke-width:1.5" x1="127.5" x2="42" y1="159.969" y2="159.969"/><polygon fill="#A80036" points="38 192.953 42 202.953 46 192.953 42 196.953" style="stroke:#a80036;stroke-width:1.5"/><line style="stroke:#a80036;stroke-width:1.5" x1="42" x2="42" y1="159.969" y2="249.938"/><line style="stroke:#a80036;stroke-width:1.5" x1="42" x2="200.5" y1="249.938" y2="249.938"/><line style="stroke:#a80036;stroke-width:1.5" x1="200.5" x2="200.5" y1="249.938" y2="269.938"/><polygon fill="#A80036" points="196.5 259.938 200.5 269.938 204.5 259.938 200.5 263.938" style="stroke:#a80036;stroke-width:1"/><line style="stroke:#a80036;stroke-width:1.5" x1="200.5" x2="200.5" y1="127.969" y2="147.969"/><polygon fill="#A80036" points="196.5 137.969 200.5 147.969 204.5 137.969 200.5 141.969" style="stroke:#a80036;stroke-width:1"/><line style="stroke:#a80036;stroke-width:1.5" x1="200.5" x2="200.5" y1="303.906" y2="313.906"/><line style="stroke:#a80036;stroke-width:1.5" x1="200.5" x2="371" y1="313.906" y2="313.906"/><polygon fill="#A80036" points="367 229.438 371 219.438 375 229.438 371 225.438" style="stroke:#a80036;stroke-width:1.5"/><line style="stroke:#a80036;stroke-width:1.5" x1="371" x2="371" y1="115.969" y2="313.906"/><line style="stroke:#a80036;stroke-width:1.5" x1="371" x2="256.5" y1="115.969" y2="115.969"/><polygon fill="#A80036" points="266.5 111.969 256.5 115.969 266.5 119.969 262.5 115.969" style="stroke:#a80036;stroke-width:1"/><line style="stroke:#a80036;stroke-width:1.5" x1="144.5" x2="24" y1="115.969" y2="115.969"/><polygon fill="#A80036" points="20 215.438 24 225.438 28 215.438 24 219.438" style="stroke:#a80036;stroke-width:1.5"/><line style="stroke:#a80036;stroke-width:1.5" x1="24" x2="24" y1="115.969" y2="325.906"/><line style="stroke:#a80036;stroke-width:1.5" x1="24" x2="200.5" y1="325.906" y2="325.906"/><line style="stroke:#a80036;stroke-width:1.5" x1="200.5" x2="200.5" y1="325.906" y2="345.906"/><polygon fill="#A80036" points="196.5 335.906 200.5 345.906 204.5 335.906 200.5 339.906" style="stroke:#a80036;stroke-width:1"/><line style="stroke:#a80036;stroke-width:1.5" x1="200.5" x2="200.5" y1="83.969" y2="103.969"/><polygon fill="#A80036" points="196.5 93.969 200.5 103.969 204.5 93.969 200.5 97.969" style="stroke:#a80036;stroke-width:1"/><line style="stroke:#a80036;stroke-width:1.5" x1="200.5" x2="200.5" y1="379.875" y2="399.875"/><polygon fill="#A80036" points="196.5 389.875 200.5 399.875 204.5 389.875 200.5 393.875" style="stroke:#a80036;stroke-width:1"/></g></svg>