<svg xmlns="http://www.w3.org/2000/svg" xmlns:xlink="http://www.w3.org/1999/xlink" width="513" height="791" contentScriptType="application/ecmascript" contentStyleType="text/css" style="width:513px;height:791px" preserveAspectRatio="none" version="1.1" viewBox="0 0 513 791" zoomAndPan="magnify"><defs><filter id="fkp0j5mgrz7rw" width="300%" height="300%" x="-1" y="-1"><feGaussianBlur result="blurOut" stdDeviation="2"/><feColorMatrix in="blurOut" result="blurOut2" type="matrix" values="0 0 0 0 0 0 0 0 0 0 0 0 0 0 0 0 0 0 .4 0"/><feOffset dx="4" dy="4" in="blurOut2" result="blurOut3"/><feBlend in="SourceGraphic" in2="blurOut3" mode="normal"/></filter></defs><g><ellipse cx="402.25" cy="18" fill="#000" filter="url(#fkp0j5mgrz7rw)" rx="10" ry="10" style="stroke:none;stroke-width:1"/><rect style="stroke:#a80036;stroke-width:1.5" width="62" height="50" x="371.25" y="90" fill="#FEFECE" filter="url(#fkp0j5mgrz7rw)" rx="12.5" ry="12.5"/><line style="stroke:#a80036;stroke-width:1.5" x1="371.25" x2="433.25" y1="116.297" y2="116.297"/><text x="381.25" y="107.995" fill="#000" font-family="sans-serif" font-size="14" lengthAdjust="spacingAndGlyphs" textLength="42">getter</text><rect style="stroke:#a80036;stroke-width:1.5" width="77" height="50" x="160" y="248" fill="#FEFECE" filter="url(#fkp0j5mgrz7rw)" rx="12.5" ry="12.5"/><line style="stroke:#a80036;stroke-width:1.5" x1="160" x2="237" y1="274.297" y2="274.297"/><text x="170" y="265.995" fill="#000" font-family="sans-serif" font-size="14" lengthAdjust="spacingAndGlyphs" textLength="57">validator</text><rect style="stroke:#a80036;stroke-width:1.5" width="85" height="50" x="9" y="392" fill="#FEFECE" filter="url(#fkp0j5mgrz7rw)" rx="12.5" ry="12.5"/><line style="stroke:#a80036;stroke-width:1.5" x1="9" x2="94" y1="418.297" y2="418.297"/><text x="19" y="409.995" fill="#000" font-family="sans-serif" font-size="14" lengthAdjust="spacingAndGlyphs" textLength="65">translator</text><rect style="stroke:#a80036;stroke-width:1.5" width="61" height="50" x="6" y="520" fill="#FEFECE" filter="url(#fkp0j5mgrz7rw)" rx="12.5" ry="12.5"/><line style="stroke:#a80036;stroke-width:1.5" x1="6" x2="67" y1="546.297" y2="546.297"/><text x="16" y="537.995" fill="#000" font-family="sans-serif" font-size="14" lengthAdjust="spacingAndGlyphs" textLength="41">setter</text><ellipse cx="115.25" cy="658" fill="none" filter="url(#fkp0j5mgrz7rw)" rx="10" ry="10" style="stroke:#000;stroke-width:1"/><ellipse cx="115.75" cy="658.5" fill="#000" rx="6" ry="6" style="stroke:none;stroke-width:1"/><rect style="stroke:#a80036;stroke-width:1.5" width="88" height="50" x="22.25" y="730" fill="#FEFECE" filter="url(#fkp0j5mgrz7rw)" rx="12.5" ry="12.5"/><line style="stroke:#a80036;stroke-width:1.5" x1="22.25" x2="110.25" y1="756.297" y2="756.297"/><text x="32.25" y="747.995" fill="#000" font-family="sans-serif" font-size="14" lengthAdjust="spacingAndGlyphs" textLength="68">codeerror</text><rect style="stroke:#a80036;stroke-width:1.5" width="83" height="50" x="175" y="520" fill="#FEFECE" filter="url(#fkp0j5mgrz7rw)" rx="12.5" ry="12.5"/><line style="stroke:#a80036;stroke-width:1.5" x1="175" x2="258" y1="546.297" y2="546.297"/><text x="185" y="537.995" fill="#000" font-family="sans-serif" font-size="14" lengthAdjust="spacingAndGlyphs" textLength="63">dataerror</text><path id="*start-getter" fill="none" d="M402.2496,28.109 C402.2496,41.014 402.2496,65.21 402.2496,84.641" style="stroke:#a80036;stroke-width:1"/><polygon fill="#A80036" points="402.25 89.981 406.25 80.981 402.25 84.981 398.25 80.981 402.25 89.981" style="stroke:#a80036;stroke-width:1"/><path id="getter-validator" fill="none" d="M370.9846,128.603 C348.9966,138.238 319.4716,152.772 296.2496,170 C267.2856,191.488 239.3016,221.89 220.7056,243.907" style="stroke:#a80036;stroke-width:1"/><polygon fill="#A80036" points="217.345 247.916 226.192 243.59 220.557 244.085 220.063 238.45 217.345 247.916" style="stroke:#a80036;stroke-width:1"/><text x="302.25" y="183.067" fill="#000" font-family="sans-serif" font-size="13" lengthAdjust="spacingAndGlyphs" textLength="67">Field value</text><text x="303.75" y="198.2" fill="#000" font-family="sans-serif" font-size="13" lengthAdjust="spacingAndGlyphs" textLength="64">present in</text><text x="297.25" y="213.333" fill="#000" font-family="sans-serif" font-size="13" lengthAdjust="spacingAndGlyphs" textLength="77">input record</text><path id="validator-translator" fill="none" d="M159.9626,279.888 C130.4456,286.483 90.9502,300.155 68.25,328 C54.949,344.315 50.9584,367.961 50.1524,386.634" style="stroke:#a80036;stroke-width:1"/><polygon fill="#A80036" points="50.004 391.759 54.265 382.879 50.15 386.761 46.268 382.646 50.004 391.759" style="stroke:#a80036;stroke-width:1"/><text x="69.25" y="341.567" fill="#000" font-family="sans-serif" font-size="13" lengthAdjust="spacingAndGlyphs" textLength="67">Field value</text><text x="73.25" y="356.7" fill="#000" font-family="sans-serif" font-size="13" lengthAdjust="spacingAndGlyphs" textLength="59">is correct</text><path id="translator-setter" fill="none" d="M26.3037,442.187 C19.0417,450.831 12.0459,461.139 8.25,472 C3.2009,486.446 8.215,502.318 15.3249,515.475" style="stroke:#a80036;stroke-width:1"/><polygon fill="#A80036" points="17.805 519.827 16.824 510.027 15.329 515.483 9.873 513.988 17.805 519.827" style="stroke:#a80036;stroke-width:1"/><text x="9.25" y="485.067" fill="#000" font-family="sans-serif" font-size="13" lengthAdjust="spacingAndGlyphs" textLength="53">No error</text><path id="setter-*end" fill="none" d="M53.3918,570.085 C69.9583,593.362 94.3484,627.632 106.9836,645.385" style="stroke:#a80036;stroke-width:1"/><polygon fill="#A80036" points="109.931 649.526 107.969 639.874 107.031 645.453 101.452 644.514 109.931 649.526" style="stroke:#a80036;stroke-width:1"/><text x="89.25" y="613.067" fill="#000" font-family="sans-serif" font-size="13" lengthAdjust="spacingAndGlyphs" textLength="53">No error</text><path id="setter-codeerror" fill="none" d="M39.554,570.316 C42.9206,594.948 48.3317,634.139 53.25,668 C56.0038,686.9594 59.2211,708.2498 61.7661,724.9037" style="stroke:#a80036;stroke-width:1"/><polygon fill="#A80036" points="62.533 729.916 65.126 720.414 61.777 724.973 57.218 721.624 62.533 729.916" style="stroke:#a80036;stroke-width:1"/><text x="54.25" y="662.067" fill="#000" font-family="sans-serif" font-size="13" lengthAdjust="spacingAndGlyphs" textLength="31">Error</text><path id="getter-dataerror" fill="none" d="M400.8596,140.238 C396.6716,196.828 380.5256,340.535 321.2496,442 C304.0416,471.457 276.0106,498.066 253.2376,516.716" style="stroke:#a80036;stroke-width:1"/><polygon fill="#A80036" points="249.342 519.872 258.853 517.316 253.227 516.725 253.818 511.099 249.342 519.872" style="stroke:#a80036;stroke-width:1"/><text x="369.25" y="349.067" fill="#000" font-family="sans-serif" font-size="13" lengthAdjust="spacingAndGlyphs" textLength="31">Error</text><path id="getter-dataerror-1" fill="none" d="M412.7516,140.265 C416.1806,149.405 419.5436,160.008 421.2496,170 C429.5556,218.632 418.9496,335.914 410.2496,362 C388.0036,428.708 372.3036,446.251 317.2496,490 C300.6026,503.229 280.2396,514.828 262.1696,523.851" style="stroke:#a80036;stroke-width:1"/><polygon fill="#A80036" points="257.629 526.089 267.47 525.698 262.114 523.879 263.933 518.523 257.629 526.089" style="stroke:#a80036;stroke-width:1"/><text x="418.25" y="341.567" fill="#000" font-family="sans-serif" font-size="13" lengthAdjust="spacingAndGlyphs" textLength="83">Missing input</text><text x="427.75" y="356.7" fill="#000" font-family="sans-serif" font-size="13" lengthAdjust="spacingAndGlyphs" textLength="64">field value</text><path id="validator-dataerror" fill="none" d="M194.8216,298.021 C190.7086,330.714 185.0906,390.993 191.2496,442 C194.2726,467.03 201.3246,494.781 207.1706,515.01" style="stroke:#a80036;stroke-width:1"/><polygon fill="#A80036" points="208.628 519.984 209.936 510.223 207.222 515.186 202.259 512.471 208.628 519.984" style="stroke:#a80036;stroke-width:1"/><text x="192.25" y="421.067" fill="#000" font-family="sans-serif" font-size="13" lengthAdjust="spacingAndGlyphs" textLength="31">Error</text><path id="validator-dataerror-1" fill="none" d="M207.6586,298.214 C211.0066,307.44 214.6006,318.112 217.2496,328 C235.9106,397.631 234.1766,418.467 225.2496,490 C224.2556,497.969 222.9366,506.561 221.6166,514.496" style="stroke:#a80036;stroke-width:1"/><polygon fill="#A80036" points="220.707 519.869 226.153 511.663 221.541 514.939 218.265 510.328 220.707 519.869" style="stroke:#a80036;stroke-width:1"/><text x="233.25" y="421.067" fill="#000" font-family="sans-serif" font-size="13" lengthAdjust="spacingAndGlyphs" textLength="78">Invalid value</text><path id="translator-dataerror" fill="none" d="M64.7719,442.081 C74.269,457.327 88.1261,476.618 104.25,490 C123.6306,506.085 148.6096,518.725 170.0586,527.719" style="stroke:#a80036;stroke-width:1"/><polygon fill="#A80036" points="174.861 529.697 168.063 522.571 170.238 527.793 165.016 529.968 174.861 529.697" style="stroke:#a80036;stroke-width:1"/><text x="105.25" y="485.067" fill="#000" font-family="sans-serif" font-size="13" lengthAdjust="spacingAndGlyphs" textLength="31">Error</text><path id="dataerror-*end" fill="none" d="M195.1096,570.175 C182.7296,584.233 166.7296,602.233 152.2496,618 C143.4076,627.628 133.1656,638.395 125.7016,646.173" style="stroke:#a80036;stroke-width:1"/><polygon fill="#A80036" points="121.868 650.16 130.989 646.445 125.333 646.556 125.222 640.9 121.868 650.16" style="stroke:#a80036;stroke-width:1"/><path id="*end-codeerror" fill="none" d="M108.6926,671.712 C101.0605,686.5103 88.2843,711.2804 78.7395,729.7855" style="stroke:#a80036;stroke-width:1"/><polygon fill="#A80036" points="111.073 667.1 103.391 673.264 108.78 671.543 110.501 676.932 111.073 667.1" style="stroke:#a80036;stroke-width:1"/></g></svg>