<svg xmlns="http://www.w3.org/2000/svg" xmlns:xlink="http://www.w3.org/1999/xlink" width="956" height="436" contentScriptType="application/ecmascript" contentStyleType="text/css" style="width:956px;height:436px" preserveAspectRatio="none" version="1.1" viewBox="0 0 956 436" zoomAndPan="magnify"><defs><filter id="fibsbl1drcpx3" width="300%" height="300%" x="-1" y="-1"><feGaussianBlur result="blurOut" stdDeviation="2"/><feColorMatrix in="blurOut" result="blurOut2" type="matrix" values="0 0 0 0 0 0 0 0 0 0 0 0 0 0 0 0 0 0 .4 0"/><feOffset dx="4" dy="4" in="blurOut2" result="blurOut3"/><feBlend in="SourceGraphic" in2="blurOut3" mode="normal"/></filter></defs><g><rect id="Mapping table" width="121" height="48" x="422.75" y="8" fill="#FEFECE" filter="url(#fibsbl1drcpx3)" style="stroke:#a80036;stroke-width:1.5"/><ellipse cx="437.75" cy="24" fill="#ADD1B2" rx="11" ry="11" style="stroke:#a80036;stroke-width:1"/><path d="M440.7188,29.6406 Q440.1406,29.9375 439.5,30.0781 Q438.8594,30.2344 438.1563,30.2344 Q435.6563,30.2344 434.3281,28.5938 Q433.0156,26.9375 433.0156,23.8125 Q433.0156,20.6875 434.3281,19.0313 Q435.6563,17.375 438.1563,17.375 Q438.8594,17.375 439.5,17.5313 Q440.1563,17.6875 440.7188,17.9844 L440.7188,20.7031 Q440.0938,20.125 439.5,19.8594 Q438.9063,19.5781 438.2813,19.5781 Q436.9375,19.5781 436.25,20.6563 Q435.5625,21.7188 435.5625,23.8125 Q435.5625,25.9063 436.25,26.9844 Q436.9375,28.0469 438.2813,28.0469 Q438.9063,28.0469 439.5,27.7813 Q440.0938,27.5 440.7188,26.9219 L440.7188,29.6406 Z"/><text x="451.75" y="28.154" fill="#000" font-family="sans-serif" font-size="12" lengthAdjust="spacingAndGlyphs" textLength="89">Mapping table</text><line style="stroke:#a80036;stroke-width:1.5" x1="423.75" x2="542.75" y1="40" y2="40"/><line style="stroke:#a80036;stroke-width:1.5" x1="423.75" x2="542.75" y1="48" y2="48"/><rect id="Row" width="125" height="60.805" x="420.75" y="134.5" fill="#FEFECE" filter="url(#fibsbl1drcpx3)" style="stroke:#a80036;stroke-width:1.5"/><ellipse cx="466.5" cy="150.5" fill="#ADD1B2" rx="11" ry="11" style="stroke:#a80036;stroke-width:1"/><path d="M469.4688,156.1406 Q468.8906,156.4375 468.25,156.5781 Q467.6094,156.7344 466.9063,156.7344 Q464.4063,156.7344 463.0781,155.0938 Q461.7656,153.4375 461.7656,150.3125 Q461.7656,147.1875 463.0781,145.5313 Q464.4063,143.875 466.9063,143.875 Q467.6094,143.875 468.25,144.0313 Q468.9063,144.1875 469.4688,144.4844 L469.4688,147.2031 Q468.8438,146.625 468.25,146.3594 Q467.6563,146.0781 467.0313,146.0781 Q465.6875,146.0781 465,147.1563 Q464.3125,148.2188 464.3125,150.3125 Q464.3125,152.4063 465,153.4844 Q465.6875,154.5469 467.0313,154.5469 Q467.6563,154.5469 468.25,154.2813 Q468.8438,154 469.4688,153.4219 L469.4688,156.1406 Z"/><text x="487" y="154.654" fill="#000" font-family="sans-serif" font-size="12" lengthAdjust="spacingAndGlyphs" textLength="25">Row</text><line style="stroke:#a80036;stroke-width:1.5" x1="421.75" x2="544.75" y1="166.5" y2="166.5"/><text x="426.75" y="180.71" fill="#000" font-family="sans-serif" font-size="11" lengthAdjust="spacingAndGlyphs" textLength="113">Field optionality flag</text><line style="stroke:#a80036;stroke-width:1.5" x1="421.75" x2="544.75" y1="187.305" y2="187.305"/><rect id="Getter" width="72" height="48" x="95" y="274" fill="#FEFECE" filter="url(#fibsbl1drcpx3)" style="stroke:#a80036;stroke-width:1.5"/><ellipse cx="110" cy="290" fill="#ADD1B2" rx="11" ry="11" style="stroke:#a80036;stroke-width:1"/><path d="M112.9688,295.6406 Q112.3906,295.9375 111.75,296.0781 Q111.1094,296.2344 110.4063,296.2344 Q107.9063,296.2344 106.5781,294.5938 Q105.2656,292.9375 105.2656,289.8125 Q105.2656,286.6875 106.5781,285.0313 Q107.9063,283.375 110.4063,283.375 Q111.1094,283.375 111.75,283.5313 Q112.4063,283.6875 112.9688,283.9844 L112.9688,286.7031 Q112.3438,286.125 111.75,285.8594 Q111.1563,285.5781 110.5313,285.5781 Q109.1875,285.5781 108.5,286.6563 Q107.8125,287.7188 107.8125,289.8125 Q107.8125,291.9063 108.5,292.9844 Q109.1875,294.0469 110.5313,294.0469 Q111.1563,294.0469 111.75,293.7813 Q112.3438,293.5 112.9688,292.9219 L112.9688,295.6406 Z"/><text x="124" y="294.154" fill="#000" font-family="sans-serif" font-size="12" lengthAdjust="spacingAndGlyphs" textLength="40">Getter</text><line style="stroke:#a80036;stroke-width:1.5" x1="96" x2="166" y1="306" y2="306"/><line style="stroke:#a80036;stroke-width:1.5" x1="96" x2="166" y1="314" y2="314"/><path fill="#FBFB77" d="M6,384 L6,424.2656 A0,0 0 0 0 6,424.2656 L172,424.2656 A0,0 0 0 0 172,424.2656 L172,394 L162,384 L100.7478,384 L121.679,322.081 L92.7478,384 L6,384 A0,0 0 0 0 6,384" filter="url(#fibsbl1drcpx3)" style="stroke:#a80036;stroke-width:1"/><path fill="#FBFB77" d="M162,384 L162,394 L172,394 L162,384" style="stroke:#a80036;stroke-width:1"/><text x="12" y="401.067" fill="#000" font-family="sans-serif" font-size="13" lengthAdjust="spacingAndGlyphs" textLength="142">Extracts value of input</text><text x="12" y="416.2" fill="#000" font-family="sans-serif" font-size="13" lengthAdjust="spacingAndGlyphs" textLength="145">field from input record.</text><rect id="Defaulter" width="90" height="48" x="279" y="274" fill="#FEFECE" filter="url(#fibsbl1drcpx3)" style="stroke:#a80036;stroke-width:1.5"/><ellipse cx="294" cy="290" fill="#ADD1B2" rx="11" ry="11" style="stroke:#a80036;stroke-width:1"/><path d="M296.9688,295.6406 Q296.3906,295.9375 295.75,296.0781 Q295.1094,296.2344 294.4063,296.2344 Q291.9063,296.2344 290.5781,294.5938 Q289.2656,292.9375 289.2656,289.8125 Q289.2656,286.6875 290.5781,285.0313 Q291.9063,283.375 294.4063,283.375 Q295.1094,283.375 295.75,283.5313 Q296.4063,283.6875 296.9688,283.9844 L296.9688,286.7031 Q296.3438,286.125 295.75,285.8594 Q295.1563,285.5781 294.5313,285.5781 Q293.1875,285.5781 292.5,286.6563 Q291.8125,287.7188 291.8125,289.8125 Q291.8125,291.9063 292.5,292.9844 Q293.1875,294.0469 294.5313,294.0469 Q295.1563,294.0469 295.75,293.7813 Q296.3438,293.5 296.9688,292.9219 L296.9688,295.6406 Z"/><text x="308" y="294.154" fill="#000" font-family="sans-serif" font-size="12" lengthAdjust="spacingAndGlyphs" textLength="58">Defaulter</text><line style="stroke:#a80036;stroke-width:1.5" x1="280" x2="368" y1="306" y2="306"/><line style="stroke:#a80036;stroke-width:1.5" x1="280" x2="368" y1="314" y2="314"/><path fill="#FBFB77" d="M207.75,384 L207.75,424.2656 A0,0 0 0 0 207.75,424.2656 L368.75,424.2656 A0,0 0 0 0 368.75,424.2656 L368.75,394 L358.75,384 L298.641,384 L316.01,322.081 L290.641,384 L207.75,384 A0,0 0 0 0 207.75,384" filter="url(#fibsbl1drcpx3)" style="stroke:#a80036;stroke-width:1"/><path fill="#FBFB77" d="M358.75,384 L358.75,394 L368.75,394 L358.75,384" style="stroke:#a80036;stroke-width:1"/><text x="213.75" y="401.067" fill="#000" font-family="sans-serif" font-size="13" lengthAdjust="spacingAndGlyphs" textLength="140">Provides default value</text><text x="213.75" y="416.2" fill="#000" font-family="sans-serif" font-size="13" lengthAdjust="spacingAndGlyphs" textLength="97">for output field.</text><rect id="Validator" width="88" height="48" x="439" y="274" fill="#FEFECE" filter="url(#fibsbl1drcpx3)" style="stroke:#a80036;stroke-width:1.5"/><ellipse cx="454" cy="290" fill="#ADD1B2" rx="11" ry="11" style="stroke:#a80036;stroke-width:1"/><path d="M456.9688,295.6406 Q456.3906,295.9375 455.75,296.0781 Q455.1094,296.2344 454.4063,296.2344 Q451.9063,296.2344 450.5781,294.5938 Q449.2656,292.9375 449.2656,289.8125 Q449.2656,286.6875 450.5781,285.0313 Q451.9063,283.375 454.4063,283.375 Q455.1094,283.375 455.75,283.5313 Q456.4063,283.6875 456.9688,283.9844 L456.9688,286.7031 Q456.3438,286.125 455.75,285.8594 Q455.1563,285.5781 454.5313,285.5781 Q453.1875,285.5781 452.5,286.6563 Q451.8125,287.7188 451.8125,289.8125 Q451.8125,291.9063 452.5,292.9844 Q453.1875,294.0469 454.5313,294.0469 Q455.1563,294.0469 455.75,293.7813 Q456.3438,293.5 456.9688,292.9219 L456.9688,295.6406 Z"/><text x="468" y="294.154" fill="#000" font-family="sans-serif" font-size="12" lengthAdjust="spacingAndGlyphs" textLength="56">Validator</text><line style="stroke:#a80036;stroke-width:1.5" x1="440" x2="526" y1="306" y2="306"/><line style="stroke:#a80036;stroke-width:1.5" x1="440" x2="526" y1="314" y2="314"/><path fill="#FBFB77" d="M403.75,384 L403.75,424.2656 A0,0 0 0 0 403.75,424.2656 L562.75,424.2656 A0,0 0 0 0 562.75,424.2656 L562.75,394 L552.75,384 L487,384 L483,322.081 L479,384 L403.75,384 A0,0 0 0 0 403.75,384" filter="url(#fibsbl1drcpx3)" style="stroke:#a80036;stroke-width:1"/><path fill="#FBFB77" d="M552.75,384 L552.75,394 L562.75,394 L552.75,384" style="stroke:#a80036;stroke-width:1"/><text x="409.75" y="401.067" fill="#000" font-family="sans-serif" font-size="13" lengthAdjust="spacingAndGlyphs" textLength="112">Checks input field</text><text x="409.75" y="416.2" fill="#000" font-family="sans-serif" font-size="13" lengthAdjust="spacingAndGlyphs" textLength="138">value for correctness.</text><rect id="Translator" width="96" height="48" x="589" y="274" fill="#FEFECE" filter="url(#fibsbl1drcpx3)" style="stroke:#a80036;stroke-width:1.5"/><ellipse cx="604" cy="290" fill="#ADD1B2" rx="11" ry="11" style="stroke:#a80036;stroke-width:1"/><path d="M606.9688,295.6406 Q606.3906,295.9375 605.75,296.0781 Q605.1094,296.2344 604.4063,296.2344 Q601.9063,296.2344 600.5781,294.5938 Q599.2656,292.9375 599.2656,289.8125 Q599.2656,286.6875 600.5781,285.0313 Q601.9063,283.375 604.4063,283.375 Q605.1094,283.375 605.75,283.5313 Q606.4063,283.6875 606.9688,283.9844 L606.9688,286.7031 Q606.3438,286.125 605.75,285.8594 Q605.1563,285.5781 604.5313,285.5781 Q603.1875,285.5781 602.5,286.6563 Q601.8125,287.7188 601.8125,289.8125 Q601.8125,291.9063 602.5,292.9844 Q603.1875,294.0469 604.5313,294.0469 Q605.1563,294.0469 605.75,293.7813 Q606.3438,293.5 606.9688,292.9219 L606.9688,295.6406 Z"/><text x="618" y="294.154" fill="#000" font-family="sans-serif" font-size="12" lengthAdjust="spacingAndGlyphs" textLength="64">Translator</text><line style="stroke:#a80036;stroke-width:1.5" x1="590" x2="684" y1="306" y2="306"/><line style="stroke:#a80036;stroke-width:1.5" x1="590" x2="684" y1="314" y2="314"/><path fill="#FBFB77" d="M597.75,384 L597.75,424.2656 A0,0 0 0 0 597.75,424.2656 L730.75,424.2656 A0,0 0 0 0 730.75,424.2656 L730.75,394 L720.75,384 L663.019,384 L642.992,322.081 L655.019,384 L597.75,384 A0,0 0 0 0 597.75,384" filter="url(#fibsbl1drcpx3)" style="stroke:#a80036;stroke-width:1"/><path fill="#FBFB77" d="M720.75,384 L720.75,394 L730.75,394 L720.75,384" style="stroke:#a80036;stroke-width:1"/><text x="603.75" y="401.067" fill="#000" font-family="sans-serif" font-size="13" lengthAdjust="spacingAndGlyphs" textLength="112">Calculates output</text><text x="603.75" y="416.2" fill="#000" font-family="sans-serif" font-size="13" lengthAdjust="spacingAndGlyphs" textLength="68">field value.</text><rect id="Setter" width="71" height="48" x="779.75" y="274" fill="#FEFECE" filter="url(#fibsbl1drcpx3)" style="stroke:#a80036;stroke-width:1.5"/><ellipse cx="794.75" cy="290" fill="#ADD1B2" rx="11" ry="11" style="stroke:#a80036;stroke-width:1"/><path d="M797.7188,295.6406 Q797.1406,295.9375 796.5,296.0781 Q795.8594,296.2344 795.1563,296.2344 Q792.6563,296.2344 791.3281,294.5938 Q790.0156,292.9375 790.0156,289.8125 Q790.0156,286.6875 791.3281,285.0313 Q792.6563,283.375 795.1563,283.375 Q795.8594,283.375 796.5,283.5313 Q797.1563,283.6875 797.7188,283.9844 L797.7188,286.7031 Q797.0938,286.125 796.5,285.8594 Q795.9063,285.5781 795.2813,285.5781 Q793.9375,285.5781 793.25,286.6563 Q792.5625,287.7188 792.5625,289.8125 Q792.5625,291.9063 793.25,292.9844 Q793.9375,294.0469 795.2813,294.0469 Q795.9063,294.0469 796.5,293.7813 Q797.0938,293.5 797.7188,292.9219 L797.7188,295.6406 Z"/><text x="808.75" y="294.154" fill="#000" font-family="sans-serif" font-size="12" lengthAdjust="spacingAndGlyphs" textLength="39">Setter</text><line style="stroke:#a80036;stroke-width:1.5" x1="780.75" x2="849.75" y1="306" y2="306"/><line style="stroke:#a80036;stroke-width:1.5" x1="780.75" x2="849.75" y1="314" y2="314"/><path fill="#FBFB77" d="M766,384 L766,424.2656 A0,0 0 0 0 766,424.2656 L944,424.2656 A0,0 0 0 0 944,424.2656 L944,394 L934,384 L851.621,384 L823.877,322.081 L843.621,384 L766,384 A0,0 0 0 0 766,384" filter="url(#fibsbl1drcpx3)" style="stroke:#a80036;stroke-width:1"/><path fill="#FBFB77" d="M934,384 L934,394 L944,394 L934,384" style="stroke:#a80036;stroke-width:1"/><text x="772" y="401.067" fill="#000" font-family="sans-serif" font-size="13" lengthAdjust="spacingAndGlyphs" textLength="117">Injects output field</text><text x="772" y="416.2" fill="#000" font-family="sans-serif" font-size="13" lengthAdjust="spacingAndGlyphs" textLength="157">value into output record.</text><path id="Mapping table-Row" fill="none" d="M483,69.369 C483,89.792 483,114.962 483,134.208" style="stroke:#a80036;stroke-width:1"/><polygon fill="#A80036" points="483 56.119 479 62.119 483 68.119 487 62.119 483 56.119" style="stroke:#a80036;stroke-width:1"/><text x="484" y="99.067" fill="#000" font-family="sans-serif" font-size="13" lengthAdjust="spacingAndGlyphs" textLength="68">consists of</text><text x="456.809" y="123.55" fill="#000" font-family="sans-serif" font-size="13" lengthAdjust="spacingAndGlyphs" textLength="23">1..*</text><path id="Row-Getter" fill="none" d="M407.988,193.917 C333.845,221.509 223.564,262.551 167.128,283.555" style="stroke:#a80036;stroke-width:1"/><polygon fill="#A80036" points="420.475 189.269 413.457 187.613 409.228 193.454 416.247 195.111 420.475 189.269" style="stroke:#a80036;stroke-width:1"/><text x="319" y="239.067" fill="#000" font-family="sans-serif" font-size="13" lengthAdjust="spacingAndGlyphs" textLength="46">defines</text><text x="175.099" y="275.833" fill="#000" font-family="sans-serif" font-size="13" lengthAdjust="spacingAndGlyphs" textLength="24">0..1</text><path id="Row-Defaulter" fill="none" d="M436.757,204.1 C409.323,226.702 375.444,254.615 352.023,273.912" style="stroke:#a80036;stroke-width:1"/><polygon fill="#A80036" points="446.92 195.726 439.746 196.454 437.658 203.356 444.833 202.628 446.92 195.726" style="stroke:#a80036;stroke-width:1"/><text x="410" y="239.067" fill="#000" font-family="sans-serif" font-size="13" lengthAdjust="spacingAndGlyphs" textLength="46">defines</text><text x="330.309" y="262.865" fill="#000" font-family="sans-serif" font-size="13" lengthAdjust="spacingAndGlyphs" textLength="24">0..1</text><path id="Row-Validator" fill="none" d="M483,208.953 C483,230.594 483,255.975 483,273.912" style="stroke:#a80036;stroke-width:1"/><polygon fill="#A80036" points="483 195.726 479 201.726 483 207.726 487 201.726 483 195.726" style="stroke:#a80036;stroke-width:1"/><text x="484" y="239.067" fill="#000" font-family="sans-serif" font-size="13" lengthAdjust="spacingAndGlyphs" textLength="46">defines</text><text x="455.156" y="262.865" fill="#000" font-family="sans-serif" font-size="13" lengthAdjust="spacingAndGlyphs" textLength="24">0..1</text><path id="Row-Translator" fill="none" d="M528.14,204.399 C554.649,226.948 587.273,254.7 609.858,273.912" style="stroke:#a80036;stroke-width:1"/><polygon fill="#A80036" points="517.945 195.726 519.924 202.66 527.086 203.501 525.107 196.566 517.945 195.726" style="stroke:#a80036;stroke-width:1"/><text x="575" y="239.067" fill="#000" font-family="sans-serif" font-size="13" lengthAdjust="spacingAndGlyphs" textLength="46">defines</text><text x="576.077" y="262.865" fill="#000" font-family="sans-serif" font-size="13" lengthAdjust="spacingAndGlyphs" textLength="24">0..1</text><path id="Row-Setter" fill="none" d="M557.559,195.419 C626.749,222.72 726.744,262.176 779.431,282.965" style="stroke:#a80036;stroke-width:1"/><polygon fill="#A80036" points="545.447 190.64 549.56 196.563 556.61 195.044 552.496 189.121 545.447 190.64" style="stroke:#a80036;stroke-width:1"/><text x="680" y="239.067" fill="#000" font-family="sans-serif" font-size="13" lengthAdjust="spacingAndGlyphs" textLength="46">defines</text><text x="747.871" y="275.878" fill="#000" font-family="sans-serif" font-size="13" lengthAdjust="spacingAndGlyphs" textLength="24">0..1</text></g></svg>