<svg xmlns="http://www.w3.org/2000/svg" xmlns:xlink="http://www.w3.org/1999/xlink" width="293" height="481" contentScriptType="application/ecmascript" contentStyleType="text/css" style="width:293px;height:481px" preserveAspectRatio="none" version="1.1" viewBox="0 0 293 481" zoomAndPan="magnify"><defs><filter id="f12z1ohcgcr8gn" width="300%" height="300%" x="-1" y="-1"><feGaussianBlur result="blurOut" stdDeviation="2"/><feColorMatrix in="blurOut" result="blurOut2" type="matrix" values="0 0 0 0 0 0 0 0 0 0 0 0 0 0 0 0 0 0 .4 0"/><feOffset dx="4" dy="4" in="blurOut2" result="blurOut3"/><feBlend in="SourceGraphic" in2="blurOut3" mode="normal"/></filter></defs><g><ellipse cx="65" cy="20" fill="#000" filter="url(#f12z1ohcgcr8gn)" rx="10" ry="10" style="stroke:none;stroke-width:1"/><rect style="stroke:#a80036;stroke-width:1.5" width="90" height="33.969" x="20" y="71.399" fill="#FEFECE" filter="url(#f12z1ohcgcr8gn)" rx="12.5" ry="12.5"/><text x="30" y="92.538" fill="#000" font-family="sans-serif" font-size="12" lengthAdjust="spacingAndGlyphs" textLength="70">First phase</text><rect style="stroke:#a80036;stroke-width:1.5" width="110" height="33.969" x="10" y="146.767" fill="#FEFECE" filter="url(#f12z1ohcgcr8gn)" rx="12.5" ry="12.5"/><text x="20" y="167.905" fill="#000" font-family="sans-serif" font-size="12" lengthAdjust="spacingAndGlyphs" textLength="90">Second phase</text><rect style="stroke:#a80036;stroke-width:1.5" width="94" height="33.969" x="18" y="222.134" fill="#FEFECE" filter="url(#f12z1ohcgcr8gn)" rx="12.5" ry="12.5"/><text x="28" y="243.273" fill="#000" font-family="sans-serif" font-size="12" lengthAdjust="spacingAndGlyphs" textLength="74">Third phase</text><rect style="stroke:#a80036;stroke-width:1.5" width="32" height="33.969" x="49" y="297.502" fill="#FEFECE" filter="url(#f12z1ohcgcr8gn)" rx="12.5" ry="12.5"/><text x="59" y="318.641" fill="#000" font-family="sans-serif" font-size="12" lengthAdjust="spacingAndGlyphs" textLength="12">...</text><rect style="stroke:#a80036;stroke-width:1.5" width="89" height="33.969" x="20.5" y="372.87" fill="#FEFECE" filter="url(#f12z1ohcgcr8gn)" rx="12.5" ry="12.5"/><text x="30.5" y="394.008" fill="#000" font-family="sans-serif" font-size="12" lengthAdjust="spacingAndGlyphs" textLength="69">Last phase</text><ellipse cx="65" cy="459.237" fill="#FFF" filter="url(#f12z1ohcgcr8gn)" rx="11" ry="11" style="stroke:#000;stroke-width:1"/><ellipse cx="65" cy="459.237" fill="#000" rx="6" ry="6" style="stroke:#7f7f7f;stroke-width:1"/><line style="stroke:#a80036;stroke-width:1.5" x1="65" x2="65" y1="30" y2="71.399"/><polygon fill="#A80036" points="61 61.399 65 71.399 69 61.399 65 65.399" style="stroke:#a80036;stroke-width:1"/><text x="69" y="51.305" fill="#000" font-family="sans-serif" font-size="11" lengthAdjust="spacingAndGlyphs" textLength="187">Data packet from source system</text><line style="stroke:#a80036;stroke-width:1.5" x1="65" x2="65" y1="105.368" y2="146.767"/><polygon fill="#A80036" points="61 136.767 65 146.767 69 136.767 65 140.767" style="stroke:#a80036;stroke-width:1"/><text x="69" y="126.672" fill="#000" font-family="sans-serif" font-size="11" lengthAdjust="spacingAndGlyphs" textLength="82">Set of records</text><line style="stroke:#a80036;stroke-width:1.5" x1="65" x2="65" y1="180.735" y2="222.134"/><polygon fill="#A80036" points="61 212.134 65 222.134 69 212.134 65 216.134" style="stroke:#a80036;stroke-width:1"/><text x="69" y="202.04" fill="#000" font-family="sans-serif" font-size="11" lengthAdjust="spacingAndGlyphs" textLength="82">Set of records</text><line style="stroke:#a80036;stroke-width:1.5" x1="65" x2="65" y1="256.103" y2="297.502"/><polygon fill="#A80036" points="61 287.502 65 297.502 69 287.502 65 291.502" style="stroke:#a80036;stroke-width:1"/><text x="69" y="277.408" fill="#000" font-family="sans-serif" font-size="11" lengthAdjust="spacingAndGlyphs" textLength="82">Set of records</text><line style="stroke:#a80036;stroke-width:1.5" x1="65" x2="65" y1="331.471" y2="372.87"/><polygon fill="#A80036" points="61 362.87 65 372.87 69 362.87 65 366.87" style="stroke:#a80036;stroke-width:1"/><text x="69" y="352.775" fill="#000" font-family="sans-serif" font-size="11" lengthAdjust="spacingAndGlyphs" textLength="82">Set of records</text><line style="stroke:#a80036;stroke-width:1.5" x1="65" x2="65" y1="406.838" y2="448.237"/><polygon fill="#A80036" points="61 438.237 65 448.237 69 438.237 65 442.237" style="stroke:#a80036;stroke-width:1"/><text x="69" y="428.143" fill="#000" font-family="sans-serif" font-size="11" lengthAdjust="spacingAndGlyphs" textLength="212">Output data packet for target system</text></g></svg>