<svg xmlns="http://www.w3.org/2000/svg" xmlns:xlink="http://www.w3.org/1999/xlink" width="476" height="368" contentScriptType="application/ecmascript" contentStyleType="text/css" style="width:476px;height:368px" preserveAspectRatio="none" version="1.1" viewBox="0 0 476 368" zoomAndPan="magnify"><defs><filter id="fdtgpxuqgmcbl" width="300%" height="300%" x="-1" y="-1"><feGaussianBlur result="blurOut" stdDeviation="2"/><feColorMatrix in="blurOut" result="blurOut2" type="matrix" values="0 0 0 0 0 0 0 0 0 0 0 0 0 0 0 0 0 0 .4 0"/><feOffset dx="4" dy="4" in="blurOut2" result="blurOut3"/><feBlend in="SourceGraphic" in2="blurOut3" mode="normal"/></filter></defs><g><ellipse cx="228.5" cy="20" fill="#000" filter="url(#fdtgpxuqgmcbl)" rx="10" ry="10" style="stroke:none;stroke-width:1"/><rect style="stroke:#a80036;stroke-width:1.5" width="122" height="33.969" x="167.5" y="115.399" fill="#FEFECE" filter="url(#fdtgpxuqgmcbl)" rx="12.5" ry="12.5"/><text x="177.5" y="136.538" fill="#000" font-family="sans-serif" font-size="12" lengthAdjust="spacingAndGlyphs" textLength="102">Evaluate criteria</text><rect style="stroke:#a80036;stroke-width:1.5" width="286" height="33.969" x="85.5" y="184.368" fill="#FEFECE" filter="url(#fdtgpxuqgmcbl)" rx="12.5" ry="12.5"/><text x="95.5" y="205.506" fill="#000" font-family="sans-serif" font-size="12" lengthAdjust="spacingAndGlyphs" textLength="266">Produce zero, one or many output records</text><polygon fill="#FEFECE" points="167.5 71.399 289.5 71.399 301.5 83.399 289.5 95.399 167.5 95.399 155.5 83.399 167.5 71.399" filter="url(#fdtgpxuqgmcbl)" style="stroke:#a80036;stroke-width:1.5"/><text x="167.5" y="87.207" fill="#000" font-family="sans-serif" font-size="11" lengthAdjust="spacingAndGlyphs" textLength="122">For each input record</text><rect style="stroke:#a80036;stroke-width:1.5" width="437" height="33.969" x="10" y="260.336" fill="#FEFECE" filter="url(#fdtgpxuqgmcbl)" rx="12.5" ry="12.5"/><text x="20" y="281.475" fill="#000" font-family="sans-serif" font-size="12" lengthAdjust="spacingAndGlyphs" textLength="417">Aggregate output records from all records into a single output set</text><ellipse cx="228.5" cy="346.704" fill="#FFF" filter="url(#fdtgpxuqgmcbl)" rx="11" ry="11" style="stroke:#000;stroke-width:1"/><ellipse cx="228.5" cy="346.704" fill="#000" rx="6" ry="6" style="stroke:#7f7f7f;stroke-width:1"/><line style="stroke:#a80036;stroke-width:1.5" x1="228.5" x2="228.5" y1="149.368" y2="184.368"/><polygon fill="#A80036" points="224.5 174.368 228.5 184.368 232.5 174.368 228.5 178.368" style="stroke:#a80036;stroke-width:1"/><line style="stroke:#a80036;stroke-width:1.5" x1="228.5" x2="228.5" y1="95.399" y2="115.399"/><polygon fill="#A80036" points="224.5 105.399 228.5 115.399 232.5 105.399 228.5 109.399" style="stroke:#a80036;stroke-width:1"/><line style="stroke:#a80036;stroke-width:1.5" x1="228.5" x2="228.5" y1="218.336" y2="228.336"/><line style="stroke:#a80036;stroke-width:1.5" x1="228.5" x2="383.5" y1="228.336" y2="228.336"/><polygon fill="#A80036" points="379.5 164.868 383.5 154.868 387.5 164.868 383.5 160.868" style="stroke:#a80036;stroke-width:1.5"/><line style="stroke:#a80036;stroke-width:1.5" x1="383.5" x2="383.5" y1="83.399" y2="228.336"/><line style="stroke:#a80036;stroke-width:1.5" x1="383.5" x2="301.5" y1="83.399" y2="83.399"/><polygon fill="#A80036" points="311.5 79.399 301.5 83.399 311.5 87.399 307.5 83.399" style="stroke:#a80036;stroke-width:1"/><line style="stroke:#a80036;stroke-width:1.5" x1="155.5" x2="73.5" y1="83.399" y2="83.399"/><polygon fill="#A80036" points="69.5 150.868 73.5 160.868 77.5 150.868 73.5 154.868" style="stroke:#a80036;stroke-width:1.5"/><line style="stroke:#a80036;stroke-width:1.5" x1="73.5" x2="73.5" y1="83.399" y2="240.336"/><line style="stroke:#a80036;stroke-width:1.5" x1="73.5" x2="228.5" y1="240.336" y2="240.336"/><line style="stroke:#a80036;stroke-width:1.5" x1="228.5" x2="228.5" y1="240.336" y2="260.336"/><polygon fill="#A80036" points="224.5 250.336 228.5 260.336 232.5 250.336 228.5 254.336" style="stroke:#a80036;stroke-width:1"/><line style="stroke:#a80036;stroke-width:1.5" x1="228.5" x2="228.5" y1="30" y2="71.399"/><polygon fill="#A80036" points="224.5 61.399 228.5 71.399 232.5 61.399 228.5 65.399" style="stroke:#a80036;stroke-width:1"/><text x="232.5" y="51.305" fill="#000" font-family="sans-serif" font-size="11" lengthAdjust="spacingAndGlyphs" textLength="232">A set of zero, one or many input records</text><line style="stroke:#a80036;stroke-width:1.5" x1="228.5" x2="228.5" y1="294.305" y2="335.704"/><polygon fill="#A80036" points="224.5 325.704 228.5 335.704 232.5 325.704 228.5 329.704" style="stroke:#a80036;stroke-width:1"/><text x="232.5" y="315.61" fill="#000" font-family="sans-serif" font-size="11" lengthAdjust="spacingAndGlyphs" textLength="232">A set of zero, one or many input records</text></g></svg>