<svg xmlns="http://www.w3.org/2000/svg" xmlns:xlink="http://www.w3.org/1999/xlink" width="80" height="339" contentScriptType="application/ecmascript" contentStyleType="text/css" style="width:80px;height:339px" preserveAspectRatio="none" version="1.1" viewBox="0 0 80 339" zoomAndPan="magnify"><defs><filter id="f84xzklipnwui" width="300%" height="300%" x="-1" y="-1"><feGaussianBlur result="blurOut" stdDeviation="2"/><feColorMatrix in="blurOut" result="blurOut2" type="matrix" values="0 0 0 0 0 0 0 0 0 0 0 0 0 0 0 0 0 0 .4 0"/><feOffset dx="4" dy="4" in="blurOut2" result="blurOut3"/><feBlend in="SourceGraphic" in2="blurOut3" mode="normal"/></filter></defs><g><ellipse cx="37" cy="18" fill="#000" filter="url(#f84xzklipnwui)" rx="10" ry="10" style="stroke:none;stroke-width:1"/><rect style="stroke:#a80036;stroke-width:1.5" width="62" height="50" x="6" y="88" fill="#FEFECE" filter="url(#f84xzklipnwui)" rx="12.5" ry="12.5"/><line style="stroke:#a80036;stroke-width:1.5" x1="6" x2="68" y1="114.297" y2="114.297"/><text x="16" y="105.995" fill="#000" font-family="sans-serif" font-size="14" lengthAdjust="spacingAndGlyphs" textLength="42">getter</text><rect style="stroke:#a80036;stroke-width:1.5" width="61" height="50" x="6.75" y="198" fill="#FEFECE" filter="url(#f84xzklipnwui)" rx="12.5" ry="12.5"/><line style="stroke:#a80036;stroke-width:1.5" x1="6.75" x2="67.75" y1="224.297" y2="224.297"/><text x="16.75" y="215.995" fill="#000" font-family="sans-serif" font-size="14" lengthAdjust="spacingAndGlyphs" textLength="41">setter</text><ellipse cx="37" cy="318" fill="none" filter="url(#f84xzklipnwui)" rx="10" ry="10" style="stroke:#000;stroke-width:1"/><ellipse cx="37.5" cy="318.5" fill="#000" rx="6" ry="6" style="stroke:none;stroke-width:1"/><path id="*start-getter" fill="none" d="M37,28.257 C37,40.856 37,63.981 37,82.743" style="stroke:#a80036;stroke-width:1"/><polygon fill="#A80036" points="37 87.907 41 78.907 37 82.907 33 78.907 37 87.907" style="stroke:#a80036;stroke-width:1"/><path id="getter-setter" fill="none" d="M37,138.237 C37,154.357 37,175.621 37,192.691" style="stroke:#a80036;stroke-width:1"/><polygon fill="#A80036" points="37 197.844 41 188.844 37 192.844 33 188.844 37 197.844" style="stroke:#a80036;stroke-width:1"/><path id="setter-*end" fill="none" d="M37,248.4347 C37,265.5384 37,287.827 37,302.2736" style="stroke:#a80036;stroke-width:1"/><polygon fill="#A80036" points="37 307.582 41 298.582 37 302.582 33 298.582 37 307.582" style="stroke:#a80036;stroke-width:1"/></g></svg>