<svg xmlns="http://www.w3.org/2000/svg" xmlns:xlink="http://www.w3.org/1999/xlink" width="540" height="450" contentScriptType="application/ecmascript" contentStyleType="text/css" style="width:540px;height:450px" preserveAspectRatio="none" version="1.1" viewBox="0 0 540 450" zoomAndPan="magnify"><defs><filter id="f1easg8nby06dt" width="300%" height="300%" x="-1" y="-1"><feGaussianBlur result="blurOut" stdDeviation="2"/><feColorMatrix in="blurOut" result="blurOut2" type="matrix" values="0 0 0 0 0 0 0 0 0 0 0 0 0 0 0 0 0 0 .4 0"/><feOffset dx="4" dy="4" in="blurOut2" result="blurOut3"/><feBlend in="SourceGraphic" in2="blurOut3" mode="normal"/></filter></defs><g><rect id="Transformer" width="108" height="48" x="405" y="35" fill="#FEFECE" filter="url(#f1easg8nby06dt)" style="stroke:#a80036;stroke-width:1.5"/><ellipse cx="420" cy="51" fill="#ADD1B2" rx="11" ry="11" style="stroke:#a80036;stroke-width:1"/><path d="M422.9688,56.6406 Q422.3906,56.9375 421.75,57.0781 Q421.1094,57.2344 420.4063,57.2344 Q417.9063,57.2344 416.5781,55.5938 Q415.2656,53.9375 415.2656,50.8125 Q415.2656,47.6875 416.5781,46.0313 Q417.9063,44.375 420.4063,44.375 Q421.1094,44.375 421.75,44.5313 Q422.4063,44.6875 422.9688,44.9844 L422.9688,47.7031 Q422.3438,47.125 421.75,46.8594 Q421.1563,46.5781 420.5313,46.5781 Q419.1875,46.5781 418.5,47.6563 Q417.8125,48.7188 417.8125,50.8125 Q417.8125,52.9063 418.5,53.9844 Q419.1875,55.0469 420.5313,55.0469 Q421.1563,55.0469 421.75,54.7813 Q422.3438,54.5 422.9688,53.9219 L422.9688,56.6406 Z"/><text x="434" y="55.154" fill="#000" font-family="sans-serif" font-size="12" lengthAdjust="spacingAndGlyphs" textLength="76">Transformer</text><line style="stroke:#a80036;stroke-width:1.5" x1="406" x2="512" y1="67" y2="67"/><line style="stroke:#a80036;stroke-width:1.5" x1="406" x2="512" y1="75" y2="75"/><rect id="Criteria" width="77" height="48" x="197.75" y="188" fill="#FEFECE" filter="url(#f1easg8nby06dt)" style="stroke:#a80036;stroke-width:1.5"/><ellipse cx="212.75" cy="204" fill="#ADD1B2" rx="11" ry="11" style="stroke:#a80036;stroke-width:1"/><path d="M215.7188,209.6406 Q215.1406,209.9375 214.5,210.0781 Q213.8594,210.2344 213.1563,210.2344 Q210.6563,210.2344 209.3281,208.5938 Q208.0156,206.9375 208.0156,203.8125 Q208.0156,200.6875 209.3281,199.0313 Q210.6563,197.375 213.1563,197.375 Q213.8594,197.375 214.5,197.5313 Q215.1563,197.6875 215.7188,197.9844 L215.7188,200.7031 Q215.0938,200.125 214.5,199.8594 Q213.9063,199.5781 213.2813,199.5781 Q211.9375,199.5781 211.25,200.6563 Q210.5625,201.7188 210.5625,203.8125 Q210.5625,205.9063 211.25,206.9844 Q211.9375,208.0469 213.2813,208.0469 Q213.9063,208.0469 214.5,207.7813 Q215.0938,207.5 215.7188,206.9219 L215.7188,209.6406 Z"/><text x="226.75" y="208.154" fill="#000" font-family="sans-serif" font-size="12" lengthAdjust="spacingAndGlyphs" textLength="45">Criteria</text><line style="stroke:#a80036;stroke-width:1.5" x1="198.75" x2="273.75" y1="220" y2="220"/><line style="stroke:#a80036;stroke-width:1.5" x1="198.75" x2="273.75" y1="228" y2="228"/><path fill="#FBFB77" d="M6,8.5 L6,109.2969 A0,0 0 0 0 6,109.2969 L199.85,109.2969 L228.633,187.823 L207.85,109.2969 L370,109.2969 A0,0 0 0 0 370,109.2969 L370,18.5 L360,8.5 L6,8.5 A0,0 0 0 0 6,8.5" filter="url(#f1easg8nby06dt)" style="stroke:#a80036;stroke-width:1"/><path fill="#FBFB77" d="M360,8.5 L360,18.5 L370,18.5 L360,8.5" style="stroke:#a80036;stroke-width:1"/><text x="12" y="25.567" fill="#000" font-family="sans-serif" font-size="13" lengthAdjust="spacingAndGlyphs" textLength="343">If defined, determines if input record should be copied</text><text x="12" y="40.7" fill="#000" font-family="sans-serif" font-size="13" lengthAdjust="spacingAndGlyphs" textLength="326">to output unaltered or if a mapping table should be</text><text x="12" y="55.833" fill="#000" font-family="sans-serif" font-size="13" lengthAdjust="spacingAndGlyphs" textLength="259">used to construct new translated record.</text><text x="12" y="86.098" fill="#000" font-family="sans-serif" font-size="13" lengthAdjust="spacingAndGlyphs" textLength="322">If multiple mapping tables are defined, determines</text><text x="12" y="101.231" fill="#000" font-family="sans-serif" font-size="13" lengthAdjust="spacingAndGlyphs" textLength="179">which mapping table to use.</text><rect id="Mapping table" width="121" height="48" x="398.75" y="188" fill="#FEFECE" filter="url(#f1easg8nby06dt)" style="stroke:#a80036;stroke-width:1.5"/><ellipse cx="413.75" cy="204" fill="#ADD1B2" rx="11" ry="11" style="stroke:#a80036;stroke-width:1"/><path d="M416.7188,209.6406 Q416.1406,209.9375 415.5,210.0781 Q414.8594,210.2344 414.1563,210.2344 Q411.6563,210.2344 410.3281,208.5938 Q409.0156,206.9375 409.0156,203.8125 Q409.0156,200.6875 410.3281,199.0313 Q411.6563,197.375 414.1563,197.375 Q414.8594,197.375 415.5,197.5313 Q416.1563,197.6875 416.7188,197.9844 L416.7188,200.7031 Q416.0938,200.125 415.5,199.8594 Q414.9063,199.5781 414.2813,199.5781 Q412.9375,199.5781 412.25,200.6563 Q411.5625,201.7188 411.5625,203.8125 Q411.5625,205.9063 412.25,206.9844 Q412.9375,208.0469 414.2813,208.0469 Q414.9063,208.0469 415.5,207.7813 Q416.0938,207.5 416.7188,206.9219 L416.7188,209.6406 Z"/><text x="427.75" y="208.154" fill="#000" font-family="sans-serif" font-size="12" lengthAdjust="spacingAndGlyphs" textLength="89">Mapping table</text><line style="stroke:#a80036;stroke-width:1.5" x1="399.75" x2="518.75" y1="220" y2="220"/><line style="stroke:#a80036;stroke-width:1.5" x1="399.75" x2="518.75" y1="228" y2="228"/><rect id="Row" width="125" height="124.828" x="396.75" y="314.5" fill="#FEFECE" filter="url(#f1easg8nby06dt)" style="stroke:#a80036;stroke-width:1.5"/><ellipse cx="442.5" cy="330.5" fill="#ADD1B2" rx="11" ry="11" style="stroke:#a80036;stroke-width:1"/><path d="M445.4688,336.1406 Q444.8906,336.4375 444.25,336.5781 Q443.6094,336.7344 442.9063,336.7344 Q440.4063,336.7344 439.0781,335.0938 Q437.7656,333.4375 437.7656,330.3125 Q437.7656,327.1875 439.0781,325.5313 Q440.4063,323.875 442.9063,323.875 Q443.6094,323.875 444.25,324.0313 Q444.9063,324.1875 445.4688,324.4844 L445.4688,327.2031 Q444.8438,326.625 444.25,326.3594 Q443.6563,326.0781 443.0313,326.0781 Q441.6875,326.0781 441,327.1563 Q440.3125,328.2188 440.3125,330.3125 Q440.3125,332.4063 441,333.4844 Q441.6875,334.5469 443.0313,334.5469 Q443.6563,334.5469 444.25,334.2813 Q444.8438,334 445.4688,333.4219 L445.4688,336.1406 Z"/><text x="463" y="334.654" fill="#000" font-family="sans-serif" font-size="12" lengthAdjust="spacingAndGlyphs" textLength="25">Row</text><line style="stroke:#a80036;stroke-width:1.5" x1="397.75" x2="520.75" y1="346.5" y2="346.5"/><text x="402.75" y="360.71" fill="#000" font-family="sans-serif" font-size="11" lengthAdjust="spacingAndGlyphs" textLength="113">Field optionality flag</text><text x="402.75" y="373.515" fill="#000" font-family="sans-serif" font-size="11" lengthAdjust="spacingAndGlyphs" textLength="64">Field getter</text><text x="402.75" y="386.32" fill="#000" font-family="sans-serif" font-size="11" lengthAdjust="spacingAndGlyphs" textLength="81">Field defaulter</text><text x="402.75" y="399.125" fill="#000" font-family="sans-serif" font-size="11" lengthAdjust="spacingAndGlyphs" textLength="79">Field validator</text><text x="402.75" y="411.929" fill="#000" font-family="sans-serif" font-size="11" lengthAdjust="spacingAndGlyphs" textLength="86">Field translator</text><text x="402.75" y="424.734" fill="#000" font-family="sans-serif" font-size="11" lengthAdjust="spacingAndGlyphs" textLength="64">Field setter</text><line style="stroke:#a80036;stroke-width:1.5" x1="397.75" x2="520.75" y1="431.328" y2="431.328"/><path id="Transformer-Criteria" fill="none" d="M418.594,90.731 C408.839,97.504 398.262,104.338 388,110 C357.647,126.747 345.365,121.576 316,140 C294.607,153.422 273.366,172.621 258.153,187.671" style="stroke:#a80036;stroke-width:1"/><polygon fill="#A80036" points="429.196 83.177 421.988 83.401 419.423 90.14 426.63 89.916 429.196 83.177" style="stroke:#a80036;stroke-width:1"/><text x="317" y="153.067" fill="#000" font-family="sans-serif" font-size="13" lengthAdjust="spacingAndGlyphs" textLength="132">evaluates per record</text><text x="234.989" y="176.981" fill="#000" font-family="sans-serif" font-size="13" lengthAdjust="spacingAndGlyphs" textLength="24">0..1</text><path id="Transformer-Mapping table" fill="none" d="M459,96.313 C459,124.801 459,163.589 459,187.959" style="stroke:#a80036;stroke-width:1"/><polygon fill="#A80036" points="459 83.263 455 89.263 459 95.263 463 89.263 459 83.263" style="stroke:#a80036;stroke-width:1"/><text x="460" y="153.067" fill="#000" font-family="sans-serif" font-size="13" lengthAdjust="spacingAndGlyphs" textLength="30">uses</text><text x="432.211" y="176.922" fill="#000" font-family="sans-serif" font-size="13" lengthAdjust="spacingAndGlyphs" textLength="23">1..*</text><path id="Mapping table-Row" fill="none" d="M459,249.015 C459,268.218 459,292.378 459,314.457" style="stroke:#a80036;stroke-width:1"/><polygon fill="#A80036" points="459 236.008 455 242.008 459 248.008 463 242.008 459 236.008" style="stroke:#a80036;stroke-width:1"/><text x="460" y="279.067" fill="#000" font-family="sans-serif" font-size="13" lengthAdjust="spacingAndGlyphs" textLength="68">consists of</text><text x="433.685" y="303.213" fill="#000" font-family="sans-serif" font-size="13" lengthAdjust="spacingAndGlyphs" textLength="23">1..*</text></g></svg>