<svg xmlns="http://www.w3.org/2000/svg" xmlns:xlink="http://www.w3.org/1999/xlink" width="99" height="339" contentScriptType="application/ecmascript" contentStyleType="text/css" style="width:99px;height:339px" preserveAspectRatio="none" version="1.1" viewBox="0 0 99 339" zoomAndPan="magnify"><defs><filter id="fikbqsd5w8s2i" width="300%" height="300%" x="-1" y="-1"><feGaussianBlur result="blurOut" stdDeviation="2"/><feColorMatrix in="blurOut" result="blurOut2" type="matrix" values="0 0 0 0 0 0 0 0 0 0 0 0 0 0 0 0 0 0 .4 0"/><feOffset dx="4" dy="4" in="blurOut2" result="blurOut3"/><feBlend in="SourceGraphic" in2="blurOut3" mode="normal"/></filter></defs><g><ellipse cx="46.25" cy="18" fill="#000" filter="url(#fikbqsd5w8s2i)" rx="10" ry="10" style="stroke:none;stroke-width:1"/><rect style="stroke:#a80036;stroke-width:1.5" width="81" height="50" x="6" y="88" fill="#FEFECE" filter="url(#fikbqsd5w8s2i)" rx="12.5" ry="12.5"/><line style="stroke:#a80036;stroke-width:1.5" x1="6" x2="87" y1="114.297" y2="114.297"/><text x="16" y="105.995" fill="#000" font-family="sans-serif" font-size="14" lengthAdjust="spacingAndGlyphs" textLength="61">defaulter</text><rect style="stroke:#a80036;stroke-width:1.5" width="61" height="50" x="16" y="198" fill="#FEFECE" filter="url(#fikbqsd5w8s2i)" rx="12.5" ry="12.5"/><line style="stroke:#a80036;stroke-width:1.5" x1="16" x2="77" y1="224.297" y2="224.297"/><text x="26" y="215.995" fill="#000" font-family="sans-serif" font-size="14" lengthAdjust="spacingAndGlyphs" textLength="41">setter</text><ellipse cx="46.25" cy="318" fill="none" filter="url(#fikbqsd5w8s2i)" rx="10" ry="10" style="stroke:#000;stroke-width:1"/><ellipse cx="46.75" cy="318.5" fill="#000" rx="6" ry="6" style="stroke:none;stroke-width:1"/><path id="*start-defaulter" fill="none" d="M46.25,28.257 C46.25,40.856 46.25,63.981 46.25,82.743" style="stroke:#a80036;stroke-width:1"/><polygon fill="#A80036" points="46.25 87.907 50.25 78.907 46.25 82.907 42.25 78.907 46.25 87.907" style="stroke:#a80036;stroke-width:1"/><path id="defaulter-setter" fill="none" d="M46.25,138.237 C46.25,154.357 46.25,175.621 46.25,192.691" style="stroke:#a80036;stroke-width:1"/><polygon fill="#A80036" points="46.25 197.844 50.25 188.844 46.25 192.844 42.25 188.844 46.25 197.844" style="stroke:#a80036;stroke-width:1"/><path id="setter-*end" fill="none" d="M46.25,248.4347 C46.25,265.5384 46.25,287.827 46.25,302.2736" style="stroke:#a80036;stroke-width:1"/><polygon fill="#A80036" points="46.25 307.582 50.25 298.582 46.25 302.582 42.25 298.582 46.25 307.582" style="stroke:#a80036;stroke-width:1"/></g></svg>