<svg xmlns="http://www.w3.org/2000/svg" xmlns:xlink="http://www.w3.org/1999/xlink" width="150" height="725" contentScriptType="application/ecmascript" contentStyleType="text/css" style="width:150px;height:725px" preserveAspectRatio="none" version="1.1" viewBox="0 0 150 725" zoomAndPan="magnify"><defs><filter id="fdgksb7e1p77p" width="300%" height="300%" x="-1" y="-1"><feGaussianBlur result="blurOut" stdDeviation="2"/><feColorMatrix in="blurOut" result="blurOut2" type="matrix" values="0 0 0 0 0 0 0 0 0 0 0 0 0 0 0 0 0 0 .4 0"/><feOffset dx="4" dy="4" in="blurOut2" result="blurOut3"/><feBlend in="SourceGraphic" in2="blurOut3" mode="normal"/></filter></defs><g><ellipse cx="48.25" cy="18" fill="#000" filter="url(#fdgksb7e1p77p)" rx="10" ry="10" style="stroke:none;stroke-width:1"/><rect style="stroke:#a80036;stroke-width:1.5" width="62" height="50" x="17.25" y="106" fill="#FEFECE" filter="url(#fdgksb7e1p77p)" rx="12.5" ry="12.5"/><line style="stroke:#a80036;stroke-width:1.5" x1="17.25" x2="79.25" y1="132.297" y2="132.297"/><text x="27.25" y="123.995" fill="#000" font-family="sans-serif" font-size="14" lengthAdjust="spacingAndGlyphs" textLength="42">getter</text><rect style="stroke:#a80036;stroke-width:1.5" width="77" height="50" x="10" y="264" fill="#FEFECE" filter="url(#fdgksb7e1p77p)" rx="12.5" ry="12.5"/><line style="stroke:#a80036;stroke-width:1.5" x1="10" x2="87" y1="290.297" y2="290.297"/><text x="20" y="281.995" fill="#000" font-family="sans-serif" font-size="14" lengthAdjust="spacingAndGlyphs" textLength="57">validator</text><rect style="stroke:#a80036;stroke-width:1.5" width="85" height="50" x="6" y="422" fill="#FEFECE" filter="url(#fdgksb7e1p77p)" rx="12.5" ry="12.5"/><line style="stroke:#a80036;stroke-width:1.5" x1="6" x2="91" y1="448.297" y2="448.297"/><text x="16" y="439.995" fill="#000" font-family="sans-serif" font-size="14" lengthAdjust="spacingAndGlyphs" textLength="65">translator</text><rect style="stroke:#a80036;stroke-width:1.5" width="61" height="50" x="18" y="566" fill="#FEFECE" filter="url(#fdgksb7e1p77p)" rx="12.5" ry="12.5"/><line style="stroke:#a80036;stroke-width:1.5" x1="18" x2="79" y1="592.297" y2="592.297"/><text x="28" y="583.995" fill="#000" font-family="sans-serif" font-size="14" lengthAdjust="spacingAndGlyphs" textLength="41">setter</text><ellipse cx="48.25" cy="704" fill="none" filter="url(#fdgksb7e1p77p)" rx="10" ry="10" style="stroke:#000;stroke-width:1"/><ellipse cx="48.75" cy="704.5" fill="#000" rx="6" ry="6" style="stroke:none;stroke-width:1"/><path id="*start-getter" fill="none" d="M48.25,28.084 C48.25,43.745 48.25,76.474 48.25,100.637" style="stroke:#a80036;stroke-width:1"/><polygon fill="#A80036" points="48.25 105.653 52.25 96.653 48.25 100.653 44.25 96.653 48.25 105.653" style="stroke:#a80036;stroke-width:1"/><text x="49.25" y="71.067" fill="#000" font-family="sans-serif" font-size="13" lengthAdjust="spacingAndGlyphs" textLength="77">Input record</text><path id="getter-validator" fill="none" d="M48.25,156.033 C48.25,183.631 48.25,228.907 48.25,258.587" style="stroke:#a80036;stroke-width:1"/><polygon fill="#A80036" points="48.25 263.94 52.25 254.94 48.25 258.94 44.25 254.94 48.25 263.94" style="stroke:#a80036;stroke-width:1"/><text x="49.25" y="199.067" fill="#000" font-family="sans-serif" font-size="13" lengthAdjust="spacingAndGlyphs" textLength="67">Field value</text><text x="49.75" y="214.2" fill="#000" font-family="sans-serif" font-size="13" lengthAdjust="spacingAndGlyphs" textLength="66">from input</text><text x="62.25" y="229.333" fill="#000" font-family="sans-serif" font-size="13" lengthAdjust="spacingAndGlyphs" textLength="41">record</text><path id="validator-translator" fill="none" d="M48.25,314.033 C48.25,341.631 48.25,386.907 48.25,416.587" style="stroke:#a80036;stroke-width:1"/><polygon fill="#A80036" points="48.25 421.94 52.25 412.94 48.25 416.94 44.25 412.94 48.25 421.94" style="stroke:#a80036;stroke-width:1"/><text x="49.25" y="357.067" fill="#000" font-family="sans-serif" font-size="13" lengthAdjust="spacingAndGlyphs" textLength="67">Field value</text><text x="49.75" y="372.2" fill="#000" font-family="sans-serif" font-size="13" lengthAdjust="spacingAndGlyphs" textLength="66">from input</text><text x="62.25" y="387.332" fill="#000" font-family="sans-serif" font-size="13" lengthAdjust="spacingAndGlyphs" textLength="41">record</text><path id="translator-setter" fill="none" d="M48.25,472.088 C48.25,496.568 48.25,534.516 48.25,560.717" style="stroke:#a80036;stroke-width:1"/><polygon fill="#A80036" points="48.25 565.793 52.25 556.793 48.25 560.793 44.25 556.793 48.25 565.793" style="stroke:#a80036;stroke-width:1"/><text x="49.25" y="515.567" fill="#000" font-family="sans-serif" font-size="13" lengthAdjust="spacingAndGlyphs" textLength="69">Result field</text><text x="66.75" y="530.7" fill="#000" font-family="sans-serif" font-size="13" lengthAdjust="spacingAndGlyphs" textLength="34">value</text><path id="setter-*end" fill="none" d="M48.25,616.0853 C48.25,638.1589 48.25,670.1177 48.25,688.5025" style="stroke:#a80036;stroke-width:1"/><polygon fill="#A80036" points="48.25 693.746 52.25 684.746 48.25 688.746 44.25 684.746 48.25 693.746" style="stroke:#a80036;stroke-width:1"/><text x="49.25" y="659.067" fill="#000" font-family="sans-serif" font-size="13" lengthAdjust="spacingAndGlyphs" textLength="89">Output record</text></g></svg>