<svg xmlns="http://www.w3.org/2000/svg" xmlns:xlink="http://www.w3.org/1999/xlink" width="758" height="717" contentScriptType="application/ecmascript" contentStyleType="text/css" style="width:758px;height:717px" preserveAspectRatio="none" version="1.1" viewBox="0 0 758 717" zoomAndPan="magnify"><defs><filter id="f4xzwfp5905tj" width="300%" height="300%" x="-1" y="-1"><feGaussianBlur result="blurOut" stdDeviation="2"/><feColorMatrix in="blurOut" result="blurOut2" type="matrix" values="0 0 0 0 0 0 0 0 0 0 0 0 0 0 0 0 0 0 .4 0"/><feOffset dx="4" dy="4" in="blurOut2" result="blurOut3"/><feBlend in="SourceGraphic" in2="blurOut3" mode="normal"/></filter></defs><g><ellipse cx="580.56" cy="18" fill="#000" filter="url(#f4xzwfp5905tj)" rx="10" ry="10" style="stroke:none;stroke-width:1"/><rect style="stroke:#a80036;stroke-width:1.5" width="60" height="33.969" x="550.56" y="70" fill="#FEFECE" filter="url(#f4xzwfp5905tj)" rx="12.5" ry="12.5"/><text x="560.56" y="91.139" fill="#000" font-family="sans-serif" font-size="12" lengthAdjust="spacingAndGlyphs" textLength="40">Getter</text><rect style="stroke:#a80036;stroke-width:1.5" width="76" height="33.969" x="356.56" y="160" fill="#FEFECE" filter="url(#f4xzwfp5905tj)" rx="12.5" ry="12.5"/><text x="366.56" y="181.139" fill="#000" font-family="sans-serif" font-size="12" lengthAdjust="spacingAndGlyphs" textLength="56">Validator</text><rect style="stroke:#a80036;stroke-width:1.5" width="296" height="33.969" x="327.56" y="340" fill="#FEFECE" filter="url(#f4xzwfp5905tj)" rx="12.5" ry="12.5"/><text x="337.56" y="361.139" fill="#000" font-family="sans-serif" font-size="12" lengthAdjust="spacingAndGlyphs" textLength="276">Warning if defined or data error if undefined</text><rect style="stroke:#a80036;stroke-width:1.5" width="78" height="33.969" x="409.56" y="430" fill="#FEFECE" filter="url(#f4xzwfp5905tj)" rx="12.5" ry="12.5"/><text x="419.56" y="451.139" fill="#000" font-family="sans-serif" font-size="12" lengthAdjust="spacingAndGlyphs" textLength="58">Defaulter</text><rect style="stroke:#a80036;stroke-width:1.5" width="84" height="33.969" x="215.56" y="250" fill="#FEFECE" filter="url(#f4xzwfp5905tj)" rx="12.5" ry="12.5"/><text x="225.56" y="271.139" fill="#000" font-family="sans-serif" font-size="12" lengthAdjust="spacingAndGlyphs" textLength="64">Translator</text><rect style="stroke:#a80036;stroke-width:1.5" width="59" height="33.969" x="130.31" y="520" fill="#FEFECE" filter="url(#f4xzwfp5905tj)" rx="12.5" ry="12.5"/><text x="140.31" y="541.139" fill="#000" font-family="sans-serif" font-size="12" lengthAdjust="spacingAndGlyphs" textLength="39">Setter</text><rect style="stroke:#a80036;stroke-width:1.5" width="87" height="33.969" x="320.31" y="610" fill="#FEFECE" filter="url(#f4xzwfp5905tj)" rx="12.5" ry="12.5"/><text x="330.31" y="631.139" fill="#000" font-family="sans-serif" font-size="12" lengthAdjust="spacingAndGlyphs" textLength="67">Code error</text><rect style="stroke:#a80036;stroke-width:1.5" width="44" height="33.969" x="106.56" y="610" fill="#FEFECE" filter="url(#f4xzwfp5905tj)" rx="12.5" ry="12.5"/><text x="116.56" y="631.139" fill="#000" font-family="sans-serif" font-size="12" lengthAdjust="spacingAndGlyphs" textLength="24">End</text><ellipse cx="363.56" cy="696" fill="none" filter="url(#f4xzwfp5905tj)" rx="10" ry="10" style="stroke:#000;stroke-width:1"/><ellipse cx="364.06" cy="696.5" fill="#000" rx="6" ry="6" style="stroke:none;stroke-width:1"/><path id="start-Getter" fill="none" d="M580.56,28.036 C580.56,37.412 580.56,52.41 580.56,64.801" style="stroke:#a80036;stroke-width:1"/><polygon fill="#A80036" points="580.56 69.928 584.56 60.928 580.56 64.928 576.56 60.928 580.56 69.928" style="stroke:#a80036;stroke-width:1"/><path id="Getter-Validator" fill="none" d="M550.222,95.94 C528.34,102.205 498.403,111.896 473.56,124 C454.67,133.203 434.925,146.199 419.9,156.896" style="stroke:#a80036;stroke-width:1"/><polygon fill="#A80036" points="415.792 159.847 425.435 157.844 419.853 156.929 420.767 151.347 415.792 159.847" style="stroke:#a80036;stroke-width:1"/><text x="474.56" y="135.71" fill="#000" font-family="sans-serif" font-size="11" lengthAdjust="spacingAndGlyphs" textLength="57">onNonNull</text><path id="Getter-Warning if defined or data error if undefined" fill="none" d="M575.837,104.039 C565.694,137.865 540.473,218.767 512.56,284 C505.009,301.645 494.985,320.953 487.276,335.129" style="stroke:#a80036;stroke-width:1"/><polygon fill="#A80036" points="484.757 339.73 492.588 333.757 487.158 335.344 485.571 329.915 484.757 339.73" style="stroke:#a80036;stroke-width:1"/><text x="541.56" y="225.71" fill="#000" font-family="sans-serif" font-size="11" lengthAdjust="spacingAndGlyphs" textLength="35">onNull</text><path id="Getter-Warning if defined or data error if undefined-1" fill="none" d="M584.38,104.291 C589.95,131.258 598.14,186.515 583.56,230 C568.519,274.858 528.335,314.012 501.453,336.322" style="stroke:#a80036;stroke-width:1"/><polygon fill="#A80036" points="497.259 339.757 506.756 337.149 501.127 336.589 501.687 330.96 497.259 339.757" style="stroke:#a80036;stroke-width:1"/><text x="589.56" y="225.71" fill="#000" font-family="sans-serif" font-size="11" lengthAdjust="spacingAndGlyphs" textLength="43">onError</text><path id="Getter-Defaulter" fill="none" d="M610.56,100.886 C638.07,114.958 674.56,140.344 674.56,176 C674.56,176 674.56,176 674.56,358 C674.56,396.626 558.479,425.086 492.703,438.113" style="stroke:#a80036;stroke-width:1"/><polygon fill="#A80036" points="487.668 439.099 497.269 441.293 492.575 438.137 495.731 433.443 487.668 439.099" style="stroke:#a80036;stroke-width:1"/><text x="675.56" y="270.71" fill="#000" font-family="sans-serif" font-size="11" lengthAdjust="spacingAndGlyphs" textLength="71">onUndefined</text><path id="Validator-Translator" fill="none" d="M356.246,180.373 C310.045,184.128 236.464,193.264 219.56,214 C210.99,224.511 219.071,236.735 229.948,246.689" style="stroke:#a80036;stroke-width:1"/><polygon fill="#A80036" points="233.724 249.972 229.556 241.048 229.951 246.691 224.308 247.086 233.724 249.972" style="stroke:#a80036;stroke-width:1"/><text x="220.56" y="225.71" fill="#000" font-family="sans-serif" font-size="11" lengthAdjust="spacingAndGlyphs" textLength="57">onNonNull</text><path id="Validator-Translator-1" fill="none" d="M356.295,188.979 C339.53,194.847 320.166,203.134 304.56,214 C292.216,222.594 280.837,235.01 272.367,245.555" style="stroke:#a80036;stroke-width:1"/><polygon fill="#A80036" points="269.152 249.642 277.859 245.039 272.242 245.711 271.57 240.095 269.152 249.642" style="stroke:#a80036;stroke-width:1"/><text x="305.56" y="225.71" fill="#000" font-family="sans-serif" font-size="11" lengthAdjust="spacingAndGlyphs" textLength="71">onUndefined</text><path id="Validator-Warning if defined or data error if undefined" fill="none" d="M393.942,194.288 C393.76,215.855 395.668,254.59 409.56,284 C419.224,304.462 436.748,323.157 451.311,336.366" style="stroke:#a80036;stroke-width:1"/><polygon fill="#A80036" points="455.331 339.943 451.265 330.973 451.595 336.62 445.948 336.95 455.331 339.943" style="stroke:#a80036;stroke-width:1"/><text x="410.56" y="270.71" fill="#000" font-family="sans-serif" font-size="11" lengthAdjust="spacingAndGlyphs" textLength="35">onNull</text><path id="Validator-Warning if defined or data error if undefined-1" fill="none" d="M409.706,194.215 C421.863,208.055 438.507,229.001 448.56,250 C461.844,277.751 469.128,312.831 472.686,334.849" style="stroke:#a80036;stroke-width:1"/><polygon fill="#A80036" points="473.471 339.882 476.034 330.373 472.7 334.942 468.13 331.607 473.471 339.882" style="stroke:#a80036;stroke-width:1"/><text x="462.56" y="270.71" fill="#000" font-family="sans-serif" font-size="11" lengthAdjust="spacingAndGlyphs" textLength="43">onError</text><path id="Translator-Setter" fill="none" d="M220.998,284.067 C210.58,289.564 199.612,296.3 190.56,304 C152.168,336.658 137.751,346.269 121.56,394 C107.222,436.265 130.207,487.052 146.213,514.994" style="stroke:#a80036;stroke-width:1"/><polygon fill="#A80036" points="148.912 519.608 147.821 509.82 146.388 515.292 140.915 513.859 148.912 519.608" style="stroke:#a80036;stroke-width:1"/><text x="122.56" y="405.71" fill="#000" font-family="sans-serif" font-size="11" lengthAdjust="spacingAndGlyphs" textLength="57">onNonNull</text><path id="Translator-Setter-1" fill="none" d="M250.617,284.179 C240.472,308.034 221.21,354.128 206.56,394 C190.962,436.451 174.834,486.863 166.116,514.757" style="stroke:#a80036;stroke-width:1"/><polygon fill="#A80036" points="164.577 519.697 171.075 512.296 166.066 514.924 163.438 509.914 164.577 519.697" style="stroke:#a80036;stroke-width:1"/><text x="207.56" y="405.71" fill="#000" font-family="sans-serif" font-size="11" lengthAdjust="spacingAndGlyphs" textLength="71">onUndefined</text><path id="Translator-Code error" fill="none" d="M260.403,284.278 C267.279,322.478 286.136,420.644 311.56,500 C323.676,537.819 342.252,580.198 353.612,604.909" style="stroke:#a80036;stroke-width:1"/><polygon fill="#A80036" points="355.784 609.609 355.64 599.761 353.687 605.07 348.378 603.116 355.784 609.609" style="stroke:#a80036;stroke-width:1"/><text x="302.56" y="450.71" fill="#000" font-family="sans-serif" font-size="11" lengthAdjust="spacingAndGlyphs" textLength="35">onNull</text><path id="Translator-Warning if defined or data error if undefined" fill="none" d="M280.468,284.178 C301.455,298.954 329.692,318.697 332.56,320 C349.178,327.55 367.631,333.687 385.609,338.612" style="stroke:#a80036;stroke-width:1"/><polygon fill="#A80036" points="390.665 339.969 383.009 333.773 385.836 338.673 380.936 341.5 390.665 339.969" style="stroke:#a80036;stroke-width:1"/><text x="333.56" y="315.71" fill="#000" font-family="sans-serif" font-size="11" lengthAdjust="spacingAndGlyphs" textLength="43">onError</text><path id="Defaulter-Setter" fill="none" d="M409.283,459.96 C352.47,477.259 248.258,508.991 194.176,525.459" style="stroke:#a80036;stroke-width:1"/><polygon fill="#A80036" points="189.102 527.004 198.877 528.21 193.885 525.548 196.547 520.557 189.102 527.004" style="stroke:#a80036;stroke-width:1"/><text x="331.56" y="495.71" fill="#000" font-family="sans-serif" font-size="11" lengthAdjust="spacingAndGlyphs" textLength="57">onNonNull</text><path id="Defaulter-Code error" fill="none" d="M430.375,464.24 C411.812,481.226 384.854,507.165 378.56,520 C365.301,547.036 362.816,582.306 362.779,604.56" style="stroke:#a80036;stroke-width:1"/><polygon fill="#A80036" points="362.813 609.65 366.754 600.624 362.78 604.65 358.754 600.677 362.813 609.65" style="stroke:#a80036;stroke-width:1"/><text x="379.56" y="540.71" fill="#000" font-family="sans-serif" font-size="11" lengthAdjust="spacingAndGlyphs" textLength="35">onNull</text><path id="Defaulter-Code error-1" fill="none" d="M445.723,464.109 C441.549,485.478 432.576,523.994 417.56,554 C408.054,572.994 393.417,592.118 381.779,605.878" style="stroke:#a80036;stroke-width:1"/><polygon fill="#A80036" points="378.272 609.97 387.165 605.738 381.525 606.173 381.09 600.533 378.272 609.97" style="stroke:#a80036;stroke-width:1"/><text x="432.56" y="540.71" fill="#000" font-family="sans-serif" font-size="11" lengthAdjust="spacingAndGlyphs" textLength="43">onError</text><path id="Defaulter-Code error-2" fill="none" d="M461.605,464.272 C477.182,485.822 499.169,524.538 482.56,554 C467.377,580.931 437.616,598.933 411.657,610.2015" style="stroke:#a80036;stroke-width:1"/><polygon fill="#A80036" points="406.858 612.228 416.705 612.41 411.464 610.282 413.592 605.041 406.858 612.228" style="stroke:#a80036;stroke-width:1"/><text x="489.56" y="540.71" fill="#000" font-family="sans-serif" font-size="11" lengthAdjust="spacingAndGlyphs" textLength="71">onUndefined</text><path id="Setter-End" fill="none" d="M130.107,540.912 C91.235,545.434 26.0205,555.6 11.5596,574 C-13.9282,606.4306 59.008,619.1678 101.0731,623.7218" style="stroke:#a80036;stroke-width:1"/><polygon fill="#A80036" points="106.291 624.262 97.751 619.356 101.318 623.747 96.927 627.313 106.291 624.262" style="stroke:#a80036;stroke-width:1"/><text x="12.56" y="585.71" fill="#000" font-family="sans-serif" font-size="11" lengthAdjust="spacingAndGlyphs" textLength="57">onNonNull</text><path id="Setter-End-1" fill="none" d="M130.224,547.184 C117.517,552.785 103.8941,561.361 96.5596,574 C90.3595,584.684 96.4346,596.416 104.8942,606.0281" style="stroke:#a80036;stroke-width:1"/><polygon fill="#A80036" points="108.366 609.736 105.134 600.433 104.948 606.087 99.294 605.902 108.366 609.736" style="stroke:#a80036;stroke-width:1"/><text x="97.56" y="585.71" fill="#000" font-family="sans-serif" font-size="11" lengthAdjust="spacingAndGlyphs" textLength="35">onNull</text><path id="Setter-End-2" fill="none" d="M153.874,554.141 C148.848,568.406 141.485,589.309 135.994,604.896" style="stroke:#a80036;stroke-width:1"/><polygon fill="#A80036" points="134.209 609.962 140.972 602.802 135.87 605.246 133.427 600.144 134.209 609.962" style="stroke:#a80036;stroke-width:1"/><text x="148.56" y="585.71" fill="#000" font-family="sans-serif" font-size="11" lengthAdjust="spacingAndGlyphs" textLength="71">onUndefined</text><path id="Setter-Code error" fill="none" d="M188.88,553.692 C215.457,567.868 251.517,586.965 258.56,590 C276.677,597.809 297.095,605.13 315.078,611.1035" style="stroke:#a80036;stroke-width:1"/><polygon fill="#A80036" points="320.081 612.752 312.784 606.137 315.332 611.188 310.281 613.736 320.081 612.752" style="stroke:#a80036;stroke-width:1"/><text x="259.56" y="585.71" fill="#000" font-family="sans-serif" font-size="11" lengthAdjust="spacingAndGlyphs" textLength="43">onError</text><path id="Code error-end" fill="none" d="M363.56,644.2188 C363.56,655.2999 363.56,669.8549 363.56,680.5405" style="stroke:#a80036;stroke-width:1"/><polygon fill="#A80036" points="363.56 685.737 367.56 676.737 363.56 680.737 359.56 676.737 363.56 685.737" style="stroke:#a80036;stroke-width:1"/><path id="Warning if defined or data error if undefined-Defaulter" fill="none" d="M470.607,374.141 C466.23,388.406 459.817,409.309 455.035,424.896" style="stroke:#a80036;stroke-width:1"/><polygon fill="#A80036" points="453.48 429.962 459.945 422.532 454.947 425.182 452.297 420.185 453.48 429.962" style="stroke:#a80036;stroke-width:1"/><text x="465.56" y="405.71" fill="#000" font-family="sans-serif" font-size="11" lengthAdjust="spacingAndGlyphs" textLength="42">defined</text><path id="Warning if defined or data error if undefined-end" fill="none" d="M569.715,374.062 C607.182,386.361 641.56,407.999 641.56,446 C641.56,446 641.56,446 641.56,628 C641.56,682.4669 437.327,692.7863 378.964,694.6233" style="stroke:#a80036;stroke-width:1"/><polygon fill="#A80036" points="373.783 694.776 382.897 698.509 378.781 694.629 382.661 690.513 373.783 694.776" style="stroke:#a80036;stroke-width:1"/><text x="642.56" y="540.71" fill="#000" font-family="sans-serif" font-size="11" lengthAdjust="spacingAndGlyphs" textLength="64">not defined</text><path id="End-end" fill="none" d="M150.668,634.3032 C198.344,647.8959 309.709,679.6468 349.288,690.9311" style="stroke:#a80036;stroke-width:1"/><polygon fill="#A80036" points="354.173 692.324 346.615 686.009 349.365 690.952 344.421 693.702 354.173 692.324" style="stroke:#a80036;stroke-width:1"/></g></svg>