<svg xmlns="http://www.w3.org/2000/svg" xmlns:xlink="http://www.w3.org/1999/xlink" width="615" height="717" contentScriptType="application/ecmascript" contentStyleType="text/css" style="width:615px;height:717px" preserveAspectRatio="none" version="1.1" viewBox="0 0 615 717" zoomAndPan="magnify"><defs><filter id="f1ev6w1e9q8097" width="300%" height="300%" x="-1" y="-1"><feGaussianBlur result="blurOut" stdDeviation="2"/><feColorMatrix in="blurOut" result="blurOut2" type="matrix" values="0 0 0 0 0 0 0 0 0 0 0 0 0 0 0 0 0 0 .4 0"/><feOffset dx="4" dy="4" in="blurOut2" result="blurOut3"/><feBlend in="SourceGraphic" in2="blurOut3" mode="normal"/></filter></defs><g><ellipse cx="131" cy="18" fill="#000" filter="url(#f1ev6w1e9q8097)" rx="10" ry="10" style="stroke:none;stroke-width:1"/><rect style="stroke:#a80036;stroke-width:1.5" width="60" height="33.969" x="101" y="70" fill="#FEFECE" filter="url(#f1ev6w1e9q8097)" rx="12.5" ry="12.5"/><text x="111" y="91.139" fill="#000" font-family="sans-serif" font-size="12" lengthAdjust="spacingAndGlyphs" textLength="40">Getter</text><rect style="stroke:#a80036;stroke-width:1.5" width="76" height="33.969" x="288" y="160" fill="#FEFECE" filter="url(#f1ev6w1e9q8097)" rx="12.5" ry="12.5"/><text x="298" y="181.139" fill="#000" font-family="sans-serif" font-size="12" lengthAdjust="spacingAndGlyphs" textLength="56">Validator</text><rect style="stroke:#a80036;stroke-width:1.5" width="78" height="33.969" x="147" y="430" fill="#FEFECE" filter="url(#f1ev6w1e9q8097)" rx="12.5" ry="12.5"/><text x="157" y="451.139" fill="#000" font-family="sans-serif" font-size="12" lengthAdjust="spacingAndGlyphs" textLength="58">Defaulter</text><rect style="stroke:#a80036;stroke-width:1.5" width="71" height="33.969" x="204.75" y="340" fill="#FEFECE" filter="url(#f1ev6w1e9q8097)" rx="12.5" ry="12.5"/><text x="214.75" y="361.139" fill="#000" font-family="sans-serif" font-size="12" lengthAdjust="spacingAndGlyphs" textLength="51">Warning</text><rect style="stroke:#a80036;stroke-width:1.5" width="84" height="33.969" x="395" y="250" fill="#FEFECE" filter="url(#f1ev6w1e9q8097)" rx="12.5" ry="12.5"/><text x="405" y="271.139" fill="#000" font-family="sans-serif" font-size="12" lengthAdjust="spacingAndGlyphs" textLength="64">Translator</text><rect style="stroke:#a80036;stroke-width:1.5" width="59" height="33.969" x="415.75" y="520" fill="#FEFECE" filter="url(#f1ev6w1e9q8097)" rx="12.5" ry="12.5"/><text x="425.75" y="541.139" fill="#000" font-family="sans-serif" font-size="12" lengthAdjust="spacingAndGlyphs" textLength="39">Setter</text><rect style="stroke:#a80036;stroke-width:1.5" width="87" height="33.969" x="162.75" y="610" fill="#FEFECE" filter="url(#f1ev6w1e9q8097)" rx="12.5" ry="12.5"/><text x="172.75" y="631.139" fill="#000" font-family="sans-serif" font-size="12" lengthAdjust="spacingAndGlyphs" textLength="67">Code error</text><rect style="stroke:#a80036;stroke-width:1.5" width="44" height="33.969" x="349" y="610" fill="#FEFECE" filter="url(#f1ev6w1e9q8097)" rx="12.5" ry="12.5"/><text x="359" y="631.139" fill="#000" font-family="sans-serif" font-size="12" lengthAdjust="spacingAndGlyphs" textLength="24">End</text><ellipse cx="318" cy="696" fill="none" filter="url(#f1ev6w1e9q8097)" rx="10" ry="10" style="stroke:#000;stroke-width:1"/><ellipse cx="318.5" cy="696.5" fill="#000" rx="6" ry="6" style="stroke:none;stroke-width:1"/><path id="start-Getter" fill="none" d="M131,28.036 C131,37.412 131,52.41 131,64.801" style="stroke:#a80036;stroke-width:1"/><polygon fill="#A80036" points="131 69.928 135 60.928 131 64.928 127 60.928 131 69.928" style="stroke:#a80036;stroke-width:1"/><path id="Getter-Validator" fill="none" d="M161.041,101.557 C194.373,116.599 248.335,140.951 285.408,157.682" style="stroke:#a80036;stroke-width:1"/><polygon fill="#A80036" points="290.296 159.887 283.737 152.54 285.738 157.831 280.447 159.832 290.296 159.887" style="stroke:#a80036;stroke-width:1"/><text x="247" y="135.71" fill="#000" font-family="sans-serif" font-size="11" lengthAdjust="spacingAndGlyphs" textLength="57">onNonNull</text><path id="Getter-Defaulter" fill="none" d="M100.741,95.088 C63.7469,105.763 6,129.821 6,176 C6,176 6,176 6,358 C6,418.319 88.589,437.298 141.881,443.267" style="stroke:#a80036;stroke-width:1"/><polygon fill="#A80036" points="146.943 443.804 138.416 438.875 141.971 443.275 137.571 446.83 146.943 443.804" style="stroke:#a80036;stroke-width:1"/><text x="7" y="270.71" fill="#000" font-family="sans-serif" font-size="11" lengthAdjust="spacingAndGlyphs" textLength="35">onNull</text><path id="Getter-Defaulter-1" fill="none" d="M116.129,104.153 C102.3594,120.841 84,148.288 84,176 C84,176 84,176 84,358 C84,390.721 114.465,413.961 142.095,428.309" style="stroke:#a80036;stroke-width:1"/><polygon fill="#A80036" points="146.856 430.71 140.623 423.084 142.392 428.457 137.019 430.226 146.856 430.71" style="stroke:#a80036;stroke-width:1"/><text x="85" y="270.71" fill="#000" font-family="sans-serif" font-size="11" lengthAdjust="spacingAndGlyphs" textLength="71">onUndefined</text><path id="Getter-Warning" fill="none" d="M137.654,104.361 C156.55,150.821 210.52,283.518 231.507,335.118" style="stroke:#a80036;stroke-width:1"/><polygon fill="#A80036" points="233.433 339.853 233.746 330.009 231.549 335.222 226.336 333.024 233.433 339.853" style="stroke:#a80036;stroke-width:1"/><text x="190" y="225.71" fill="#000" font-family="sans-serif" font-size="11" lengthAdjust="spacingAndGlyphs" textLength="43">onError</text><path id="Validator-Translator" fill="none" d="M334.273,194.208 C340.636,205.406 350.306,220.022 362,230 C370.385,237.154 380.435,243.242 390.413,248.264" style="stroke:#a80036;stroke-width:1"/><polygon fill="#A80036" points="394.986 250.496 388.652 242.954 390.493 248.303 385.144 250.143 394.986 250.496" style="stroke:#a80036;stroke-width:1"/><text x="363" y="225.71" fill="#000" font-family="sans-serif" font-size="11" lengthAdjust="spacingAndGlyphs" textLength="57">onNonNull</text><path id="Validator-Translator-1" fill="none" d="M364.322,183.598 C384.392,188.435 407.873,197.407 423,214 C430.509,222.237 434.061,234.08 435.712,244.383" style="stroke:#a80036;stroke-width:1"/><polygon fill="#A80036" points="436.413 249.604 439.179 240.152 435.747 244.649 431.25 241.217 436.413 249.604" style="stroke:#a80036;stroke-width:1"/><text x="433" y="225.71" fill="#000" font-family="sans-serif" font-size="11" lengthAdjust="spacingAndGlyphs" textLength="71">onUndefined</text><path id="Validator-Warning" fill="none" d="M322.297,194.028 C317.029,215.308 306.287,253.726 291,284 C281.614,302.588 267.816,321.737 256.938,335.61" style="stroke:#a80036;stroke-width:1"/><polygon fill="#A80036" points="253.663 339.739 262.39 335.174 256.77 335.822 256.122 330.202 253.663 339.739" style="stroke:#a80036;stroke-width:1"/><text x="307" y="270.71" fill="#000" font-family="sans-serif" font-size="11" lengthAdjust="spacingAndGlyphs" textLength="35">onNull</text><path id="Validator-Warning-1" fill="none" d="M295.706,194.003 C275.822,206.357 251.452,225.476 240,250 C227.385,277.014 230.737,312.29 234.899,334.551" style="stroke:#a80036;stroke-width:1"/><polygon fill="#A80036" points="235.907 339.643 238.082 330.037 234.935 334.738 230.234 331.592 235.907 339.643" style="stroke:#a80036;stroke-width:1"/><text x="241" y="270.71" fill="#000" font-family="sans-serif" font-size="11" lengthAdjust="spacingAndGlyphs" textLength="43">onError</text><path id="Translator-Setter" fill="none" d="M433.683,284.177 C428.694,310.526 420.223,364.358 424,410 C427.074,447.14 435.161,489.814 440.355,514.753" style="stroke:#a80036;stroke-width:1"/><polygon fill="#A80036" points="441.417 519.797 443.477 510.166 440.387 514.904 435.649 511.814 441.417 519.797" style="stroke:#a80036;stroke-width:1"/><text x="425" y="405.71" fill="#000" font-family="sans-serif" font-size="11" lengthAdjust="spacingAndGlyphs" textLength="57">onNonNull</text><path id="Translator-Setter-1" fill="none" d="M445.357,284.156 C456.97,307.608 477.416,352.791 485,394 C493.063,437.814 471.703,487.643 457.181,515.087" style="stroke:#a80036;stroke-width:1"/><polygon fill="#A80036" points="454.736 519.62 462.53 513.599 457.11 515.22 455.49 509.8 454.736 519.62" style="stroke:#a80036;stroke-width:1"/><text x="487" y="405.71" fill="#000" font-family="sans-serif" font-size="11" lengthAdjust="spacingAndGlyphs" textLength="35">onNull</text><path id="Translator-Setter-2" fill="none" d="M454.947,284.156 C477.884,306.246 516.162,348.372 529,394 C542.513,442.026 498.752,490.435 469.398,516.474" style="stroke:#a80036;stroke-width:1"/><polygon fill="#A80036" points="465.538 519.843 474.948 516.936 469.304 516.554 469.686 510.91 465.538 519.843" style="stroke:#a80036;stroke-width:1"/><text x="532" y="405.71" fill="#000" font-family="sans-serif" font-size="11" lengthAdjust="spacingAndGlyphs" textLength="71">onUndefined</text><path id="Translator-Warning" fill="none" d="M400.993,284.027 C388.456,289.936 374.425,296.923 362,304 C350.861,310.345 349.43,314.194 338,320 C319.684,329.305 298.376,337.427 280.316,343.59" style="stroke:#a80036;stroke-width:1"/><polygon fill="#A80036" points="275.313 345.276 285.119 346.194 280.051 343.68 282.565 338.612 275.313 345.276" style="stroke:#a80036;stroke-width:1"/><text x="363" y="315.71" fill="#000" font-family="sans-serif" font-size="11" lengthAdjust="spacingAndGlyphs" textLength="43">onError</text><path id="Defaulter-Setter" fill="none" d="M225.055,461.27 C275.606,478.445 362.882,508.099 410.891,524.411" style="stroke:#a80036;stroke-width:1"/><polygon fill="#A80036" points="415.696 526.043 408.461 519.36 410.962 524.434 405.888 526.935 415.696 526.043" style="stroke:#a80036;stroke-width:1"/><text x="340" y="495.71" fill="#000" font-family="sans-serif" font-size="11" lengthAdjust="spacingAndGlyphs" textLength="57">onNonNull</text><path id="Defaulter-Code error" fill="none" d="M187.81,464.11 C191.43,496.329 199.562,568.699 203.613,604.751" style="stroke:#a80036;stroke-width:1"/><polygon fill="#A80036" points="204.18 609.798 207.149 600.407 203.621 604.829 199.2 601.301 204.18 609.798" style="stroke:#a80036;stroke-width:1"/><text x="199" y="540.71" fill="#000" font-family="sans-serif" font-size="11" lengthAdjust="spacingAndGlyphs" textLength="35">onNull</text><path id="Defaulter-Code error-1" fill="none" d="M171.86,464.078 C155.453,484.774 132.082,521.896 144,554 C151.609,574.497 167.958,593.069 181.957,606.2157" style="stroke:#a80036;stroke-width:1"/><polygon fill="#A80036" points="185.834 609.777 181.913 600.742 182.152 606.394 176.5 606.633 185.834 609.777" style="stroke:#a80036;stroke-width:1"/><text x="145" y="540.71" fill="#000" font-family="sans-serif" font-size="11" lengthAdjust="spacingAndGlyphs" textLength="43">onError</text><path id="Defaulter-End" fill="none" d="M199.091,464.131 C210.454,478.433 227.066,500.081 240,520 C259.395,549.869 252.172,566.577 279,590 C297.462,606.1184 323.977,615.4591 343.803,620.5666" style="stroke:#a80036;stroke-width:1"/><polygon fill="#A80036" points="348.69 621.775 340.915 615.73 343.837 620.574 338.993 623.496 348.69 621.775" style="stroke:#a80036;stroke-width:1"/><text x="257" y="540.71" fill="#000" font-family="sans-serif" font-size="11" lengthAdjust="spacingAndGlyphs" textLength="71">onUndefined</text><path id="Setter-End" fill="none" d="M415.65,544.253 C399.488,549.356 380.774,558.375 371,574 C365.374,582.994 364.913,594.688 366.061,604.709" style="stroke:#a80036;stroke-width:1"/><polygon fill="#A80036" points="366.789 609.773 369.468 600.295 366.077 604.824 361.549 601.434 366.789 609.773" style="stroke:#a80036;stroke-width:1"/><text x="372" y="585.71" fill="#000" font-family="sans-serif" font-size="11" lengthAdjust="spacingAndGlyphs" textLength="57">onNonNull</text><path id="Setter-End-1" fill="none" d="M444.157,554.4 C442.86,565.403 439.683,579.71 432,590 C423.427,601.483 410.019,609.971 397.955,615.8117" style="stroke:#a80036;stroke-width:1"/><polygon fill="#A80036" points="393.236 617.999 403.084 617.845 397.773 615.897 399.721 610.586 393.236 617.999" style="stroke:#a80036;stroke-width:1"/><text x="441" y="585.71" fill="#000" font-family="sans-serif" font-size="11" lengthAdjust="spacingAndGlyphs" textLength="35">onNull</text><path id="Setter-End-2" fill="none" d="M468.954,554.155 C481.161,564.417 491.76,577.983 483,590 C463.713,616.4589 424.66,623.897 398.161,625.7609" style="stroke:#a80036;stroke-width:1"/><polygon fill="#A80036" points="393.038 626.063 402.258 629.527 398.029 625.769 401.787 621.54 393.038 626.063" style="stroke:#a80036;stroke-width:1"/><text x="487" y="585.71" fill="#000" font-family="sans-serif" font-size="11" lengthAdjust="spacingAndGlyphs" textLength="71">onUndefined</text><path id="Setter-Code error" fill="none" d="M415.622,544.578 C388.965,550.912 348.783,561.375 315,574 C289.437,583.553 261.692,596.834 240.591,607.5824" style="stroke:#a80036;stroke-width:1"/><polygon fill="#A80036" points="235.922 609.975 245.756 609.431 240.372 607.695 242.108 602.311 235.922 609.975" style="stroke:#a80036;stroke-width:1"/><text x="316" y="585.71" fill="#000" font-family="sans-serif" font-size="11" lengthAdjust="spacingAndGlyphs" textLength="43">onError</text><path id="Code error-end" fill="none" d="M232.827,644.0482 C255.778,657.7782 287.801,676.9345 305.315,687.4118" style="stroke:#a80036;stroke-width:1"/><polygon fill="#A80036" points="309.851 690.125 304.179 682.073 305.56 687.559 300.074 688.939 309.851 690.125" style="stroke:#a80036;stroke-width:1"/><path id="Warning-Defaulter" fill="none" d="M230.096,374.141 C221.266,388.53 208.292,409.673 198.701,425.302" style="stroke:#a80036;stroke-width:1"/><polygon fill="#A80036" points="195.842 429.962 203.958 424.382 198.457 425.7 197.139 420.199 195.842 429.962" style="stroke:#a80036;stroke-width:1"/><text x="219" y="405.71" fill="#000" font-family="sans-serif" font-size="11" lengthAdjust="spacingAndGlyphs" textLength="39">always</text><path id="End-end" fill="none" d="M358.17,644.2188 C348.542,656.3904 335.598,672.7531 327.037,683.5756" style="stroke:#a80036;stroke-width:1"/><polygon fill="#A80036" points="323.878 687.57 332.599 682.993 326.98 683.648 326.325 678.03 323.878 687.57" style="stroke:#a80036;stroke-width:1"/></g></svg>