<svg xmlns="http://www.w3.org/2000/svg" xmlns:xlink="http://www.w3.org/1999/xlink" width="507" height="242" contentScriptType="application/ecmascript" contentStyleType="text/css" style="width:507px;height:242px" preserveAspectRatio="none" version="1.1" viewBox="0 0 507 242" zoomAndPan="magnify"><defs><filter id="f8mjcdoni6vbs" width="300%" height="300%" x="-1" y="-1"><feGaussianBlur result="blurOut" stdDeviation="2"/><feColorMatrix in="blurOut" result="blurOut2" type="matrix" values="0 0 0 0 0 0 0 0 0 0 0 0 0 0 0 0 0 0 .4 0"/><feOffset dx="4" dy="4" in="blurOut2" result="blurOut3"/><feBlend in="SourceGraphic" in2="blurOut3" mode="normal"/></filter></defs><g><ellipse cx="211.25" cy="18" fill="#000" filter="url(#f8mjcdoni6vbs)" rx="10" ry="10" style="stroke:none;stroke-width:1"/><rect style="stroke:#a80036;stroke-width:1.5" width="104" height="33.969" x="159.25" y="70" fill="#FEFECE" filter="url(#f8mjcdoni6vbs)" rx="12.5" ry="12.5"/><text x="169.25" y="91.139" fill="#000" font-family="sans-serif" font-size="12" lengthAdjust="spacingAndGlyphs" textLength="84">Current state</text><rect style="stroke:#a80036;stroke-width:1.5" width="67" height="33.969" x="6" y="198" fill="#FEFECE" filter="url(#f8mjcdoni6vbs)" rx="12.5" ry="12.5"/><text x="16" y="219.139" fill="#000" font-family="sans-serif" font-size="12" lengthAdjust="spacingAndGlyphs" textLength="47">onError</text><rect style="stroke:#a80036;stroke-width:1.5" width="59" height="33.969" x="123" y="198" fill="#FEFECE" filter="url(#f8mjcdoni6vbs)" rx="12.5" ry="12.5"/><text x="133" y="219.139" fill="#000" font-family="sans-serif" font-size="12" lengthAdjust="spacingAndGlyphs" textLength="39">onNull</text><rect style="stroke:#a80036;stroke-width:1.5" width="84" height="33.969" x="228.25" y="198" fill="#FEFECE" filter="url(#f8mjcdoni6vbs)" rx="12.5" ry="12.5"/><text x="238.25" y="219.139" fill="#000" font-family="sans-serif" font-size="12" lengthAdjust="spacingAndGlyphs" textLength="64">onNonNull</text><rect style="stroke:#a80036;stroke-width:1.5" width="100" height="33.969" x="335.25" y="198" fill="#FEFECE" filter="url(#f8mjcdoni6vbs)" rx="12.5" ry="12.5"/><text x="345.25" y="219.139" fill="#000" font-family="sans-serif" font-size="12" lengthAdjust="spacingAndGlyphs" textLength="80">onUndefined</text><path id="start-Current state" fill="none" d="M211.25,28.036 C211.25,37.412 211.25,52.41 211.25,64.801" style="stroke:#a80036;stroke-width:1"/><polygon fill="#A80036" points="211.25 69.928 215.25 60.928 211.25 64.928 207.25 60.928 211.25 69.928" style="stroke:#a80036;stroke-width:1"/><path id="Current state-onError" fill="none" d="M159.086,93.302 C118.119,98.593 65.6649,108.245 51.25,124 C34.4491,142.3625 33.8078,172.3099 35.7838,192.567" style="stroke:#a80036;stroke-width:1"/><polygon fill="#A80036" points="36.367 197.75 39.336 188.36 35.808 192.782 31.386 189.254 36.367 197.75" style="stroke:#a80036;stroke-width:1"/><text x="52.25" y="148.21" fill="#000" font-family="sans-serif" font-size="11" lengthAdjust="spacingAndGlyphs" textLength="85">action resulted</text><text x="64.25" y="161.015" fill="#000" font-family="sans-serif" font-size="11" lengthAdjust="spacingAndGlyphs" textLength="61">in an error</text><path id="Current state-onNull" fill="none" d="M171.988,104.173 C164.098,109.308 156.831,115.838 152.25,124 C140.436,145.0481 142.88,173.4652 146.676,192.694" style="stroke:#a80036;stroke-width:1"/><polygon fill="#A80036" points="147.772 197.86 149.817 188.226 146.734 192.969 141.991 189.886 147.772 197.86" style="stroke:#a80036;stroke-width:1"/><text x="158.25" y="148.21" fill="#000" font-family="sans-serif" font-size="11" lengthAdjust="spacingAndGlyphs" textLength="80">action returns</text><text x="153.25" y="161.015" fill="#000" font-family="sans-serif" font-size="11" lengthAdjust="spacingAndGlyphs" textLength="90">undefined value</text><path id="Current state-onNonNull" fill="none" d="M230.338,104.079 C236.167,109.839 242.121,116.721 246.25,124 C258.502,145.5999 264.691,173.6704 267.682,192.6766" style="stroke:#a80036;stroke-width:1"/><polygon fill="#A80036" points="268.443 197.784 271.072 188.293 267.706 192.839 263.16 189.472 268.443 197.784" style="stroke:#a80036;stroke-width:1"/><text x="269.75" y="148.21" fill="#000" font-family="sans-serif" font-size="11" lengthAdjust="spacingAndGlyphs" textLength="80">action returns</text><text x="266.25" y="161.015" fill="#000" font-family="sans-serif" font-size="11" lengthAdjust="spacingAndGlyphs" textLength="87">a defined value</text><path id="Current state-onUndefined" fill="none" d="M263.557,94.934 C300.735,100.889 346.426,110.636 360.25,124 C378.766,141.8993 383.93,172.2257 385.182,192.6728" style="stroke:#a80036;stroke-width:1"/><polygon fill="#A80036" points="385.431 197.902 388.999 188.722 385.193 192.907 381.008 189.102 385.431 197.902" style="stroke:#a80036;stroke-width:1"/><text x="393.75" y="135.21" fill="#000" font-family="sans-serif" font-size="11" lengthAdjust="spacingAndGlyphs" textLength="93">column contains</text><text x="395.25" y="148.015" fill="#000" font-family="sans-serif" font-size="11" lengthAdjust="spacingAndGlyphs" textLength="90">no value for the</text><text x="385.25" y="160.82" fill="#000" font-family="sans-serif" font-size="11" lengthAdjust="spacingAndGlyphs" textLength="110">row in the mapping</text><text x="426.25" y="173.625" fill="#000" font-family="sans-serif" font-size="11" lengthAdjust="spacingAndGlyphs" textLength="28">table</text></g></svg>