<svg xmlns="http://www.w3.org/2000/svg" xmlns:xlink="http://www.w3.org/1999/xlink" width="978" height="587" contentScriptType="application/ecmascript" contentStyleType="text/css" style="width:978px;height:587px" preserveAspectRatio="none" version="1.1" viewBox="0 0 978 587" zoomAndPan="magnify"><defs><filter id="f1m0wpr02vlg1u" width="300%" height="300%" x="-1" y="-1"><feGaussianBlur result="blurOut" stdDeviation="2"/><feColorMatrix in="blurOut" result="blurOut2" type="matrix" values="0 0 0 0 0 0 0 0 0 0 0 0 0 0 0 0 0 0 .4 0"/><feOffset dx="4" dy="4" in="blurOut2" result="blurOut3"/><feBlend in="SourceGraphic" in2="blurOut3" mode="normal"/></filter></defs><g><rect id="Phase" width="71" height="48" x="264.75" y="134" fill="#FEFECE" filter="url(#f1m0wpr02vlg1u)" style="stroke:#a80036;stroke-width:1.5"/><ellipse cx="279.75" cy="150" fill="#ADD1B2" rx="11" ry="11" style="stroke:#a80036;stroke-width:1"/><path d="M282.7188,155.6406 Q282.1406,155.9375 281.5,156.0781 Q280.8594,156.2344 280.1563,156.2344 Q277.6563,156.2344 276.3281,154.5938 Q275.0156,152.9375 275.0156,149.8125 Q275.0156,146.6875 276.3281,145.0313 Q277.6563,143.375 280.1563,143.375 Q280.8594,143.375 281.5,143.5313 Q282.1563,143.6875 282.7188,143.9844 L282.7188,146.7031 Q282.0938,146.125 281.5,145.8594 Q280.9063,145.5781 280.2813,145.5781 Q278.9375,145.5781 278.25,146.6563 Q277.5625,147.7188 277.5625,149.8125 Q277.5625,151.9063 278.25,152.9844 Q278.9375,154.0469 280.2813,154.0469 Q280.9063,154.0469 281.5,153.7813 Q282.0938,153.5 282.7188,152.9219 L282.7188,155.6406 Z"/><text x="293.75" y="154.154" fill="#000" font-family="sans-serif" font-size="12" lengthAdjust="spacingAndGlyphs" textLength="39">Phase</text><line style="stroke:#a80036;stroke-width:1.5" x1="265.75" x2="334.75" y1="166" y2="166"/><line style="stroke:#a80036;stroke-width:1.5" x1="265.75" x2="334.75" y1="174" y2="174"/><rect id="Criteria" width="77" height="48" x="205.75" y="276" fill="#FEFECE" filter="url(#f1m0wpr02vlg1u)" style="stroke:#a80036;stroke-width:1.5"/><ellipse cx="220.75" cy="292" fill="#ADD1B2" rx="11" ry="11" style="stroke:#a80036;stroke-width:1"/><path d="M223.7188,297.6406 Q223.1406,297.9375 222.5,298.0781 Q221.8594,298.2344 221.1563,298.2344 Q218.6563,298.2344 217.3281,296.5938 Q216.0156,294.9375 216.0156,291.8125 Q216.0156,288.6875 217.3281,287.0313 Q218.6563,285.375 221.1563,285.375 Q221.8594,285.375 222.5,285.5313 Q223.1563,285.6875 223.7188,285.9844 L223.7188,288.7031 Q223.0938,288.125 222.5,287.8594 Q221.9063,287.5781 221.2813,287.5781 Q219.9375,287.5781 219.25,288.6563 Q218.5625,289.7188 218.5625,291.8125 Q218.5625,293.9063 219.25,294.9844 Q219.9375,296.0469 221.2813,296.0469 Q221.9063,296.0469 222.5,295.7813 Q223.0938,295.5 223.7188,294.9219 L223.7188,297.6406 Z"/><text x="234.75" y="296.154" fill="#000" font-family="sans-serif" font-size="12" lengthAdjust="spacingAndGlyphs" textLength="45">Criteria</text><line style="stroke:#a80036;stroke-width:1.5" x1="206.75" x2="281.75" y1="308" y2="308"/><line style="stroke:#a80036;stroke-width:1.5" x1="206.75" x2="281.75" y1="316" y2="316"/><rect id="Action" width="71" height="48" x="321.75" y="276" fill="#FEFECE" filter="url(#f1m0wpr02vlg1u)" style="stroke:#a80036;stroke-width:1.5"/><ellipse cx="336.75" cy="292" fill="#ADD1B2" rx="11" ry="11" style="stroke:#a80036;stroke-width:1"/><path d="M339.7188,297.6406 Q339.1406,297.9375 338.5,298.0781 Q337.8594,298.2344 337.1563,298.2344 Q334.6563,298.2344 333.3281,296.5938 Q332.0156,294.9375 332.0156,291.8125 Q332.0156,288.6875 333.3281,287.0313 Q334.6563,285.375 337.1563,285.375 Q337.8594,285.375 338.5,285.5313 Q339.1563,285.6875 339.7188,285.9844 L339.7188,288.7031 Q339.0938,288.125 338.5,287.8594 Q337.9063,287.5781 337.2813,287.5781 Q335.9375,287.5781 335.25,288.6563 Q334.5625,289.7188 334.5625,291.8125 Q334.5625,293.9063 335.25,294.9844 Q335.9375,296.0469 337.2813,296.0469 Q337.9063,296.0469 338.5,295.7813 Q339.0938,295.5 339.7188,294.9219 L339.7188,297.6406 Z"/><text x="350.75" y="296.154" fill="#000" font-family="sans-serif" font-size="12" lengthAdjust="spacingAndGlyphs" textLength="39">Action</text><line style="stroke:#a80036;stroke-width:1.5" x1="322.75" x2="391.75" y1="308" y2="308"/><line style="stroke:#a80036;stroke-width:1.5" x1="322.75" x2="391.75" y1="316" y2="316"/><path fill="#FBFB77" d="M6,386.5 L6,457.0313 A0,0 0 0 0 6,457.0313 L230,457.0313 A0,0 0 0 0 230,457.0313 L230,396.5 L220,386.5 L191.049,386.5 L321.735,318.706 L183.049,386.5 L6,386.5 A0,0 0 0 0 6,386.5" filter="url(#f1m0wpr02vlg1u)" style="stroke:#a80036;stroke-width:1"/><path fill="#FBFB77" d="M220,386.5 L220,396.5 L230,396.5 L220,386.5" style="stroke:#a80036;stroke-width:1"/><text x="12" y="403.567" fill="#000" font-family="sans-serif" font-size="13" lengthAdjust="spacingAndGlyphs" textLength="196">Produces zero, one or many of</text><text x="12" y="418.7" fill="#000" font-family="sans-serif" font-size="13" lengthAdjust="spacingAndGlyphs" textLength="203">original or modified input record</text><text x="12" y="433.832" fill="#000" font-family="sans-serif" font-size="13" lengthAdjust="spacingAndGlyphs" textLength="156">or new translated record</text><text x="12" y="448.965" fill="#000" font-family="sans-serif" font-size="13" lengthAdjust="spacingAndGlyphs" textLength="131">from an input record</text><rect id="Filter" width="63" height="48" x="265.75" y="398" fill="#FEFECE" filter="url(#f1m0wpr02vlg1u)" style="stroke:#a80036;stroke-width:1.5"/><ellipse cx="280.75" cy="414" fill="#ADD1B2" rx="11" ry="11" style="stroke:#a80036;stroke-width:1"/><path d="M283.7188,419.6406 Q283.1406,419.9375 282.5,420.0781 Q281.8594,420.2344 281.1563,420.2344 Q278.6563,420.2344 277.3281,418.5938 Q276.0156,416.9375 276.0156,413.8125 Q276.0156,410.6875 277.3281,409.0313 Q278.6563,407.375 281.1563,407.375 Q281.8594,407.375 282.5,407.5313 Q283.1563,407.6875 283.7188,407.9844 L283.7188,410.7031 Q283.0938,410.125 282.5,409.8594 Q281.9063,409.5781 281.2813,409.5781 Q279.9375,409.5781 279.25,410.6563 Q278.5625,411.7188 278.5625,413.8125 Q278.5625,415.9063 279.25,416.9844 Q279.9375,418.0469 281.2813,418.0469 Q281.9063,418.0469 282.5,417.7813 Q283.0938,417.5 283.7188,416.9219 L283.7188,419.6406 Z"/><text x="294.75" y="418.154" fill="#000" font-family="sans-serif" font-size="12" lengthAdjust="spacingAndGlyphs" textLength="31">Filter</text><line style="stroke:#a80036;stroke-width:1.5" x1="266.75" x2="327.75" y1="430" y2="430"/><line style="stroke:#a80036;stroke-width:1.5" x1="266.75" x2="327.75" y1="438" y2="438"/><path fill="#FBFB77" d="M59.75,528 L59.75,568.2656 A0,0 0 0 0 59.75,568.2656 L260.75,568.2656 A0,0 0 0 0 260.75,568.2656 L260.75,538 L250.75,528 L185.265,528 L271.552,446.033 L177.265,528 L59.75,528 A0,0 0 0 0 59.75,528" filter="url(#f1m0wpr02vlg1u)" style="stroke:#a80036;stroke-width:1"/><path fill="#FBFB77" d="M250.75,528 L250.75,538 L260.75,538 L250.75,528" style="stroke:#a80036;stroke-width:1"/><text x="65.75" y="545.067" fill="#000" font-family="sans-serif" font-size="13" lengthAdjust="spacingAndGlyphs" textLength="123">Either empty set or</text><text x="65.75" y="560.2" fill="#000" font-family="sans-serif" font-size="13" lengthAdjust="spacingAndGlyphs" textLength="180">set with original input record</text><rect id="Transformer" width="108" height="48" x="364" y="398" fill="#FEFECE" filter="url(#f1m0wpr02vlg1u)" style="stroke:#a80036;stroke-width:1.5"/><ellipse cx="379" cy="414" fill="#ADD1B2" rx="11" ry="11" style="stroke:#a80036;stroke-width:1"/><path d="M381.9688,419.6406 Q381.3906,419.9375 380.75,420.0781 Q380.1094,420.2344 379.4063,420.2344 Q376.9063,420.2344 375.5781,418.5938 Q374.2656,416.9375 374.2656,413.8125 Q374.2656,410.6875 375.5781,409.0313 Q376.9063,407.375 379.4063,407.375 Q380.1094,407.375 380.75,407.5313 Q381.4063,407.6875 381.9688,407.9844 L381.9688,410.7031 Q381.3438,410.125 380.75,409.8594 Q380.1563,409.5781 379.5313,409.5781 Q378.1875,409.5781 377.5,410.6563 Q376.8125,411.7188 376.8125,413.8125 Q376.8125,415.9063 377.5,416.9844 Q378.1875,418.0469 379.5313,418.0469 Q380.1563,418.0469 380.75,417.7813 Q381.3438,417.5 381.9688,416.9219 L381.9688,419.6406 Z"/><text x="393" y="418.154" fill="#000" font-family="sans-serif" font-size="12" lengthAdjust="spacingAndGlyphs" textLength="76">Transformer</text><line style="stroke:#a80036;stroke-width:1.5" x1="365" x2="471" y1="430" y2="430"/><line style="stroke:#a80036;stroke-width:1.5" x1="365" x2="471" y1="438" y2="438"/><path fill="#FBFB77" d="M295.75,528 L295.75,568.2656 A0,0 0 0 0 295.75,568.2656 L540.75,568.2656 A0,0 0 0 0 540.75,568.2656 L540.75,538 L530.75,528 L422,528 L418,446.033 L414,528 L295.75,528 A0,0 0 0 0 295.75,528" filter="url(#f1m0wpr02vlg1u)" style="stroke:#a80036;stroke-width:1"/><path fill="#FBFB77" d="M530.75,528 L530.75,538 L540.75,538 L530.75,528" style="stroke:#a80036;stroke-width:1"/><text x="301.75" y="545.067" fill="#000" font-family="sans-serif" font-size="13" lengthAdjust="spacingAndGlyphs" textLength="208">Either set of original input record</text><text x="301.75" y="560.2" fill="#000" font-family="sans-serif" font-size="13" lengthAdjust="spacingAndGlyphs" textLength="224">or set of one new translated record</text><rect id="Injector" width="79" height="48" x="653.75" y="398" fill="#FEFECE" filter="url(#f1m0wpr02vlg1u)" style="stroke:#a80036;stroke-width:1.5"/><ellipse cx="668.75" cy="414" fill="#ADD1B2" rx="11" ry="11" style="stroke:#a80036;stroke-width:1"/><path d="M671.7188,419.6406 Q671.1406,419.9375 670.5,420.0781 Q669.8594,420.2344 669.1563,420.2344 Q666.6563,420.2344 665.3281,418.5938 Q664.0156,416.9375 664.0156,413.8125 Q664.0156,410.6875 665.3281,409.0313 Q666.6563,407.375 669.1563,407.375 Q669.8594,407.375 670.5,407.5313 Q671.1563,407.6875 671.7188,407.9844 L671.7188,410.7031 Q671.0938,410.125 670.5,409.8594 Q669.9063,409.5781 669.2813,409.5781 Q667.9375,409.5781 667.25,410.6563 Q666.5625,411.7188 666.5625,413.8125 Q666.5625,415.9063 667.25,416.9844 Q667.9375,418.0469 669.2813,418.0469 Q669.9063,418.0469 670.5,417.7813 Q671.0938,417.5 671.7188,416.9219 L671.7188,419.6406 Z"/><text x="682.75" y="418.154" fill="#000" font-family="sans-serif" font-size="12" lengthAdjust="spacingAndGlyphs" textLength="47">Injector</text><line style="stroke:#a80036;stroke-width:1.5" x1="654.75" x2="731.75" y1="430" y2="430"/><line style="stroke:#a80036;stroke-width:1.5" x1="654.75" x2="731.75" y1="438" y2="438"/><path fill="#FBFB77" d="M576,520.5 L576,575.8984 A0,0 0 0 0 576,575.8984 L966,575.8984 A0,0 0 0 0 966,575.8984 L966,530.5 L956,520.5 L758.149,520.5 L707.488,446.033 L750.149,520.5 L576,520.5 A0,0 0 0 0 576,520.5" filter="url(#f1m0wpr02vlg1u)" style="stroke:#a80036;stroke-width:1"/><path fill="#FBFB77" d="M956,520.5 L956,530.5 L966,530.5 L956,520.5" style="stroke:#a80036;stroke-width:1"/><text x="582" y="537.567" fill="#000" font-family="sans-serif" font-size="13" lengthAdjust="spacingAndGlyphs" textLength="225">Either set of original input record or</text><text x="582" y="552.7" fill="#000" font-family="sans-serif" font-size="13" lengthAdjust="spacingAndGlyphs" textLength="369">set of original input record and modified input record(s) or</text><text x="582" y="567.832" fill="#000" font-family="sans-serif" font-size="13" lengthAdjust="spacingAndGlyphs" textLength="156">new translated record(s)</text><rect id="Output set of records" width="167" height="48" x="315.75" y="8" fill="#FEFECE" filter="url(#f1m0wpr02vlg1u)" style="stroke:#a80036;stroke-width:1.5"/><ellipse cx="330.75" cy="24" fill="#ADD1B2" rx="11" ry="11" style="stroke:#a80036;stroke-width:1"/><path d="M333.7188,29.6406 Q333.1406,29.9375 332.5,30.0781 Q331.8594,30.2344 331.1563,30.2344 Q328.6563,30.2344 327.3281,28.5938 Q326.0156,26.9375 326.0156,23.8125 Q326.0156,20.6875 327.3281,19.0313 Q328.6563,17.375 331.1563,17.375 Q331.8594,17.375 332.5,17.5313 Q333.1563,17.6875 333.7188,17.9844 L333.7188,20.7031 Q333.0938,20.125 332.5,19.8594 Q331.9063,19.5781 331.2813,19.5781 Q329.9375,19.5781 329.25,20.6563 Q328.5625,21.7188 328.5625,23.8125 Q328.5625,25.9063 329.25,26.9844 Q329.9375,28.0469 331.2813,28.0469 Q331.9063,28.0469 332.5,27.7813 Q333.0938,27.5 333.7188,26.9219 L333.7188,29.6406 Z"/><text x="344.75" y="28.154" fill="#000" font-family="sans-serif" font-size="12" lengthAdjust="spacingAndGlyphs" textLength="135">Output set of records</text><line style="stroke:#a80036;stroke-width:1.5" x1="316.75" x2="481.75" y1="40" y2="40"/><line style="stroke:#a80036;stroke-width:1.5" x1="316.75" x2="481.75" y1="48" y2="48"/><rect id="Input set of records" width="156" height="48" x="124" y="8" fill="#FEFECE" filter="url(#f1m0wpr02vlg1u)" style="stroke:#a80036;stroke-width:1.5"/><ellipse cx="139" cy="24" fill="#ADD1B2" rx="11" ry="11" style="stroke:#a80036;stroke-width:1"/><path d="M141.9688,29.6406 Q141.3906,29.9375 140.75,30.0781 Q140.1094,30.2344 139.4063,30.2344 Q136.9063,30.2344 135.5781,28.5938 Q134.2656,26.9375 134.2656,23.8125 Q134.2656,20.6875 135.5781,19.0313 Q136.9063,17.375 139.4063,17.375 Q140.1094,17.375 140.75,17.5313 Q141.4063,17.6875 141.9688,17.9844 L141.9688,20.7031 Q141.3438,20.125 140.75,19.8594 Q140.1563,19.5781 139.5313,19.5781 Q138.1875,19.5781 137.5,20.6563 Q136.8125,21.7188 136.8125,23.8125 Q136.8125,25.9063 137.5,26.9844 Q138.1875,28.0469 139.5313,28.0469 Q140.1563,28.0469 140.75,27.7813 Q141.3438,27.5 141.9688,26.9219 L141.9688,29.6406 Z"/><text x="153" y="28.154" fill="#000" font-family="sans-serif" font-size="12" lengthAdjust="spacingAndGlyphs" textLength="124">Input set of records</text><line style="stroke:#a80036;stroke-width:1.5" x1="125" x2="279" y1="40" y2="40"/><line style="stroke:#a80036;stroke-width:1.5" x1="125" x2="279" y1="48" y2="48"/><path id="Phase-Criteria" fill="none" d="M255.228,191.246 C249.456,197.449 244.386,204.408 241,212 C232.014,232.152 234.253,257.616 237.837,275.778" style="stroke:#a80036;stroke-width:1"/><polygon fill="#A80036" points="264.735 182.141 257.635 183.403 256.069 190.442 263.169 189.18 264.735 182.141" style="stroke:#a80036;stroke-width:1"/><text x="246" y="225.567" fill="#000" font-family="sans-serif" font-size="13" lengthAdjust="spacingAndGlyphs" textLength="62">evaluates</text><text x="246" y="240.7" fill="#000" font-family="sans-serif" font-size="13" lengthAdjust="spacingAndGlyphs" textLength="66">per record</text><path id="Phase-Action" fill="none" d="M314.358,194.266 C324.762,219.819 338.534,253.645 347.574,275.848" style="stroke:#a80036;stroke-width:1"/><polygon fill="#A80036" points="309.412 182.118 307.969 189.183 313.936 193.232 315.379 186.167 309.412 182.118" style="stroke:#a80036;stroke-width:1"/><text x="358" y="225.567" fill="#000" font-family="sans-serif" font-size="13" lengthAdjust="spacingAndGlyphs" textLength="28">calls</text><text x="341" y="240.7" fill="#000" font-family="sans-serif" font-size="13" lengthAdjust="spacingAndGlyphs" textLength="66">per record</text><path id="Action-Filter" fill="none" d="M336.383,342.235 C327.067,360.865 316.41,382.18 308.533,397.934" style="stroke:#a80036;stroke-width:1"/><polygon fill="none" points="330.226 338.895 345.431 324.137 342.748 345.156 330.226 338.895" style="stroke:#a80036;stroke-width:1"/><path id="Action-Transformer" fill="none" d="M377.961,342.235 C387.431,360.865 398.266,382.18 406.275,397.934" style="stroke:#a80036;stroke-width:1"/><polygon fill="none" points="371.584 345.138 368.761 324.137 384.064 338.794 371.584 345.138" style="stroke:#a80036;stroke-width:1"/><path id="Action-Injector" fill="none" d="M411.357,320.413 C479.172,344.633 593.497,385.463 653.509,406.896" style="stroke:#a80036;stroke-width:1"/><polygon fill="none" points="408.803 326.934 392.323 313.615 413.512 313.75 408.803 326.934" style="stroke:#a80036;stroke-width:1"/><path id="Output set of records-Phase" fill="none" d="M380.756,60.695 C371.622,74.083 360.156,90.201 349,104 C340.806,114.135 331.183,124.782 322.644,133.853" style="stroke:#a80036;stroke-width:1"/><polygon fill="#A80036" points="383.76 56.267 375.397 61.469 380.953 60.404 382.017 65.96 383.76 56.267" style="stroke:#a80036;stroke-width:1"/><text x="364" y="99.067" fill="#000" font-family="sans-serif" font-size="13" lengthAdjust="spacingAndGlyphs" textLength="59">produces</text><path id="Input set of records-Phase" fill="none" d="M223.365,60.034 C240.747,82.026 265.021,112.741 281.562,133.67" style="stroke:#a80036;stroke-width:1"/><polygon fill="#A80036" points="220.203 56.033 222.645 65.574 223.303 59.956 228.922 60.614 220.203 56.033" style="stroke:#a80036;stroke-width:1"/><text x="258" y="99.067" fill="#000" font-family="sans-serif" font-size="13" lengthAdjust="spacingAndGlyphs" textLength="81">iterates over</text></g></svg>