<svg xmlns="http://www.w3.org/2000/svg" xmlns:xlink="http://www.w3.org/1999/xlink" width="510" height="873" contentScriptType="application/ecmascript" contentStyleType="text/css" style="width:510px;height:873px" preserveAspectRatio="none" version="1.1" viewBox="0 0 510 873" zoomAndPan="magnify"><defs><filter id="f12t8j0eokyjse" width="300%" height="300%" x="-1" y="-1"><feGaussianBlur result="blurOut" stdDeviation="2"/><feColorMatrix in="blurOut" result="blurOut2" type="matrix" values="0 0 0 0 0 0 0 0 0 0 0 0 0 0 0 0 0 0 .4 0"/><feOffset dx="4" dy="4" in="blurOut2" result="blurOut3"/><feBlend in="SourceGraphic" in2="blurOut3" mode="normal"/></filter></defs><g><ellipse cx="399.25" cy="18" fill="#000" filter="url(#f12t8j0eokyjse)" rx="10" ry="10" style="stroke:none;stroke-width:1"/><rect style="stroke:#a80036;stroke-width:1.5" width="62" height="50" x="368.25" y="90" fill="#FEFECE" filter="url(#f12t8j0eokyjse)" rx="12.5" ry="12.5"/><line style="stroke:#a80036;stroke-width:1.5" x1="368.25" x2="430.25" y1="116.297" y2="116.297"/><text x="378.25" y="107.995" fill="#000" font-family="sans-serif" font-size="14" lengthAdjust="spacingAndGlyphs" textLength="42">getter</text><rect style="stroke:#a80036;stroke-width:1.5" width="77" height="50" x="172" y="202" fill="#FEFECE" filter="url(#f12t8j0eokyjse)" rx="12.5" ry="12.5"/><line style="stroke:#a80036;stroke-width:1.5" x1="172" x2="249" y1="228.297" y2="228.297"/><text x="182" y="219.995" fill="#000" font-family="sans-serif" font-size="14" lengthAdjust="spacingAndGlyphs" textLength="57">validator</text><rect style="stroke:#a80036;stroke-width:1.5" width="85" height="50" x="6" y="346" fill="#FEFECE" filter="url(#f12t8j0eokyjse)" rx="12.5" ry="12.5"/><line style="stroke:#a80036;stroke-width:1.5" x1="6" x2="91" y1="372.297" y2="372.297"/><text x="16" y="363.995" fill="#000" font-family="sans-serif" font-size="14" lengthAdjust="spacingAndGlyphs" textLength="65">translator</text><rect style="stroke:#a80036;stroke-width:1.5" width="61" height="50" x="104" y="602" fill="#FEFECE" filter="url(#f12t8j0eokyjse)" rx="12.5" ry="12.5"/><line style="stroke:#a80036;stroke-width:1.5" x1="104" x2="165" y1="628.297" y2="628.297"/><text x="114" y="619.995" fill="#000" font-family="sans-serif" font-size="14" lengthAdjust="spacingAndGlyphs" textLength="41">setter</text><ellipse cx="161.25" cy="852" fill="none" filter="url(#f12t8j0eokyjse)" rx="10" ry="10" style="stroke:#000;stroke-width:1"/><ellipse cx="161.75" cy="852.5" fill="#000" rx="6" ry="6" style="stroke:none;stroke-width:1"/><rect style="stroke:#a80036;stroke-width:1.5" width="88" height="50" x="180.25" y="730" fill="#FEFECE" filter="url(#f12t8j0eokyjse)" rx="12.5" ry="12.5"/><line style="stroke:#a80036;stroke-width:1.5" x1="180.25" x2="268.25" y1="756.297" y2="756.297"/><text x="190.25" y="747.995" fill="#000" font-family="sans-serif" font-size="14" lengthAdjust="spacingAndGlyphs" textLength="68">codeerror</text><rect style="stroke:#a80036;stroke-width:1.5" width="81" height="50" x="202" y="474" fill="#FEFECE" filter="url(#f12t8j0eokyjse)" rx="12.5" ry="12.5"/><line style="stroke:#a80036;stroke-width:1.5" x1="202" x2="283" y1="500.297" y2="500.297"/><text x="212" y="491.995" fill="#000" font-family="sans-serif" font-size="14" lengthAdjust="spacingAndGlyphs" textLength="61">defaulter</text><path id="*start-getter" fill="none" d="M399.25,28.109 C399.25,41.014 399.25,65.21 399.25,84.641" style="stroke:#a80036;stroke-width:1"/><polygon fill="#A80036" points="399.25 89.981 403.25 80.981 399.25 84.981 395.25 80.981 399.25 89.981" style="stroke:#a80036;stroke-width:1"/><path id="getter-validator" fill="none" d="M368.04,134.164 C336.734,152.385 288.276,180.588 253.32,200.933" style="stroke:#a80036;stroke-width:1"/><polygon fill="#A80036" points="248.696 203.624 258.486 202.553 253.017 201.108 254.462 195.639 248.696 203.624" style="stroke:#a80036;stroke-width:1"/><path id="validator-translator" fill="none" d="M174.225,252.1 C161.554,261.05 147.443,271.571 135.25,282 C113.393,300.694 90.6039,323.902 73.8348,341.79" style="stroke:#a80036;stroke-width:1"/><polygon fill="#A80036" points="70.136 345.754 79.201 341.903 73.548 342.099 73.352 336.445 70.136 345.754" style="stroke:#a80036;stroke-width:1"/><path id="translator-setter" fill="none" d="M56.496,396.355 C72.3884,443.292 107.198,546.102 124.328,596.696" style="stroke:#a80036;stroke-width:1"/><polygon fill="#A80036" points="126.029 601.719 126.933 591.912 124.426 596.983 119.355 594.476 126.029 601.719" style="stroke:#a80036;stroke-width:1"/><path id="setter-*end" fill="none" d="M137.191,652.289 C142.845,698.985 155.067,799.9337 159.554,836.991" style="stroke:#a80036;stroke-width:1"/><polygon fill="#A80036" points="160.158 841.981 163.047 832.565 159.557 837.017 155.105 833.527 160.158 841.981" style="stroke:#a80036;stroke-width:1"/><path id="setter-codeerror" fill="none" d="M149.817,652.3 C159.006,666.4 171.006,684.4 182.25,700 C188.397,708.528 195.314,717.615 201.735,725.854" style="stroke:#a80036;stroke-width:1"/><polygon fill="#A80036" points="204.841 729.825 202.446 720.272 201.76 725.887 196.145 725.201 204.841 729.825" style="stroke:#a80036;stroke-width:1"/><text x="183.25" y="695.067" fill="#000" font-family="sans-serif" font-size="13" lengthAdjust="spacingAndGlyphs" textLength="31">Error</text><path id="getter-defaulter" fill="none" d="M395.718,140.367 C387.776,190.437 365.632,307.611 321.25,396 C307.493,423.398 285.863,450.657 268.712,470.094" style="stroke:#a80036;stroke-width:1"/><polygon fill="#A80036" points="265.345 473.874 274.318 469.813 268.67 470.14 268.344 464.493 265.345 473.874" style="stroke:#a80036;stroke-width:1"/><text x="364.25" y="303.067" fill="#000" font-family="sans-serif" font-size="13" lengthAdjust="spacingAndGlyphs" textLength="31">Error</text><path id="getter-defaulter-1" fill="none" d="M408.561,140.087 C411.66,149.298 414.712,159.994 416.25,170 C426.135,234.318 424.998,253.996 405.25,316 C384.674,380.605 371.055,396.934 322.25,444 C311.722,454.153 299.074,463.659 286.975,471.78" style="stroke:#a80036;stroke-width:1"/><polygon fill="#A80036" points="282.547 474.708 292.26 473.079 286.717 471.949 287.846 466.406 282.547 474.708" style="stroke:#a80036;stroke-width:1"/><text x="415.25" y="295.567" fill="#000" font-family="sans-serif" font-size="13" lengthAdjust="spacingAndGlyphs" textLength="83">Missing input</text><text x="424.75" y="310.7" fill="#000" font-family="sans-serif" font-size="13" lengthAdjust="spacingAndGlyphs" textLength="64">field value</text><path id="validator-defaulter" fill="none" d="M201.491,252.245 C190.849,285.191 175.77,345.755 188.25,396 C194.851,422.576 209.793,449.846 222.29,469.495" style="stroke:#a80036;stroke-width:1"/><polygon fill="#A80036" points="225.079 473.819 223.564 464.087 222.369 469.617 216.84 468.423 225.079 473.819" style="stroke:#a80036;stroke-width:1"/><text x="189.25" y="375.067" fill="#000" font-family="sans-serif" font-size="13" lengthAdjust="spacingAndGlyphs" textLength="31">Error</text><path id="validator-defaulter-1" fill="none" d="M213.772,252.38 C217.166,276.222 222.345,313.57 226.25,346 C231.377,388.585 236.409,437.995 239.421,468.632" style="stroke:#a80036;stroke-width:1"/><polygon fill="#A80036" points="239.923 473.755 243.027 464.408 239.436 468.779 235.065 465.188 239.923 473.755" style="stroke:#a80036;stroke-width:1"/><text x="233.25" y="375.067" fill="#000" font-family="sans-serif" font-size="13" lengthAdjust="spacingAndGlyphs" textLength="78">Invalid value</text><path id="translator-defaulter" fill="none" d="M61.1999,396.197 C70.5495,411.687 84.458,431.208 101.25,444 C129.536,465.548 167.436,479.422 196.818,487.705" style="stroke:#a80036;stroke-width:1"/><polygon fill="#A80036" points="201.829 489.086 194.215 482.838 197.009 487.757 192.09 490.551 201.829 489.086" style="stroke:#a80036;stroke-width:1"/><text x="102.25" y="439.067" fill="#000" font-family="sans-serif" font-size="13" lengthAdjust="spacingAndGlyphs" textLength="31">Error</text><path id="defaulter-setter" fill="none" d="M201.882,519.527 C187.115,528.333 171.329,539.943 160.25,554 C150.505,566.364 144.212,582.701 140.262,596.688" style="stroke:#a80036;stroke-width:1"/><polygon fill="#A80036" points="138.911 601.722 145.107 594.066 140.207 596.893 137.38 591.993 138.911 601.722" style="stroke:#a80036;stroke-width:1"/><text x="161.25" y="567.067" fill="#000" font-family="sans-serif" font-size="13" lengthAdjust="spacingAndGlyphs" textLength="53">No error</text><path id="defaulter-codeerror" fill="none" d="M240.524,524.355 C237.198,571.292 229.912,674.102 226.327,724.696" style="stroke:#a80036;stroke-width:1"/><polygon fill="#A80036" points="225.971 729.719 230.596 721.024 226.324 724.731 222.616 720.459 225.971 729.719" style="stroke:#a80036;stroke-width:1"/><text x="236.25" y="631.067" fill="#000" font-family="sans-serif" font-size="13" lengthAdjust="spacingAndGlyphs" textLength="31">Error</text><path id="codeerror-*end" fill="none" d="M208.026,780.4649 C195.603,799.198 178.997,824.2382 169.279,838.893" style="stroke:#a80036;stroke-width:1"/><polygon fill="#A80036" points="166.496 843.089 174.804 837.799 169.259 838.922 168.136 833.378 166.496 843.089" style="stroke:#a80036;stroke-width:1"/></g></svg>