<svg xmlns="http://www.w3.org/2000/svg" xmlns:xlink="http://www.w3.org/1999/xlink" width="414" height="382" contentScriptType="application/ecmascript" contentStyleType="text/css" style="width:414px;height:382px" preserveAspectRatio="none" version="1.1" viewBox="0 0 414 382" zoomAndPan="magnify"><defs><filter id="f1mgk85v8a64f8" width="300%" height="300%" x="-1" y="-1"><feGaussianBlur result="blurOut" stdDeviation="2"/><feColorMatrix in="blurOut" result="blurOut2" type="matrix" values="0 0 0 0 0 0 0 0 0 0 0 0 0 0 0 0 0 0 .4 0"/><feOffset dx="4" dy="4" in="blurOut2" result="blurOut3"/><feBlend in="SourceGraphic" in2="blurOut3" mode="normal"/></filter></defs><g><ellipse cx="184.5" cy="20" fill="#000" filter="url(#f1mgk85v8a64f8)" rx="10" ry="10" style="stroke:none;stroke-width:1"/><rect style="stroke:#a80036;stroke-width:1.5" width="195" height="33.969" x="87" y="71.399" fill="#FEFECE" filter="url(#f1mgk85v8a64f8)" rx="12.5" ry="12.5"/><text x="97" y="92.538" fill="#000" font-family="sans-serif" font-size="12" lengthAdjust="spacingAndGlyphs" textLength="175">Create empty output record</text><rect style="stroke:#a80036;stroke-width:1.5" width="297" height="33.969" x="36" y="217.102" fill="#FEFECE" filter="url(#f1mgk85v8a64f8)" rx="12.5" ry="12.5"/><text x="46" y="238.241" fill="#000" font-family="sans-serif" font-size="12" lengthAdjust="spacingAndGlyphs" textLength="277">Perform steps defined by mapping table row</text><polygon fill="#FEFECE" points="98 146.767 271 146.767 283 158.767 271 170.767 98 170.767 86 158.767 98 146.767" filter="url(#f1mgk85v8a64f8)" style="stroke:#a80036;stroke-width:1.5"/><text x="188.5" y="180.977" fill="#000" font-family="sans-serif" font-size="11" lengthAdjust="spacingAndGlyphs" textLength="94">Input record and</text><text x="188.5" y="193.782" fill="#000" font-family="sans-serif" font-size="11" lengthAdjust="spacingAndGlyphs" textLength="117">partial output record</text><text x="98" y="162.575" fill="#000" font-family="sans-serif" font-size="11" lengthAdjust="spacingAndGlyphs" textLength="173">For each row in mapping table</text><rect style="stroke:#a80036;stroke-width:1.5" width="157" height="33.969" x="106" y="295.071" fill="#FEFECE" filter="url(#f1mgk85v8a64f8)" rx="12.5" ry="12.5"/><text x="120" y="316.209" fill="#000" font-family="sans-serif" font-size="12" lengthAdjust="spacingAndGlyphs" textLength="133">Return output record</text><ellipse cx="184.5" cy="360.04" fill="#FFF" filter="url(#f1mgk85v8a64f8)" rx="11" ry="11" style="stroke:#000;stroke-width:1"/><ellipse cx="184.5" cy="360.04" fill="#000" rx="6" ry="6" style="stroke:#7f7f7f;stroke-width:1"/><line style="stroke:#a80036;stroke-width:1.5" x1="184.5" x2="184.5" y1="30" y2="71.399"/><polygon fill="#A80036" points="180.5 61.399 184.5 71.399 188.5 61.399 184.5 65.399" style="stroke:#a80036;stroke-width:1"/><text x="188.5" y="51.305" fill="#000" font-family="sans-serif" font-size="11" lengthAdjust="spacingAndGlyphs" textLength="69">Input record</text><line style="stroke:#a80036;stroke-width:1.5" x1="184.5" x2="184.5" y1="170.767" y2="217.102"/><polygon fill="#A80036" points="180.5 207.102 184.5 217.102 188.5 207.102 184.5 211.102" style="stroke:#a80036;stroke-width:1"/><line style="stroke:#a80036;stroke-width:1.5" x1="184.5" x2="184.5" y1="251.071" y2="263.071"/><line style="stroke:#a80036;stroke-width:1.5" x1="184.5" x2="345" y1="263.071" y2="263.071"/><polygon fill="#A80036" points="341 219.282 345 209.282 349 219.282 345 215.282" style="stroke:#a80036;stroke-width:1.5"/><line style="stroke:#a80036;stroke-width:1.5" x1="345" x2="345" y1="158.767" y2="263.071"/><line style="stroke:#a80036;stroke-width:1.5" x1="345" x2="283" y1="158.767" y2="158.767"/><polygon fill="#A80036" points="293 154.767 283 158.767 293 162.767 289 158.767" style="stroke:#a80036;stroke-width:1"/><text x="188.5" y="254.477" fill="#000" font-family="sans-serif" font-size="11" lengthAdjust="spacingAndGlyphs" textLength="94">Input record and</text><text x="188.5" y="267.281" fill="#000" font-family="sans-serif" font-size="11" lengthAdjust="spacingAndGlyphs" textLength="117">partial output record</text><line style="stroke:#a80036;stroke-width:1.5" x1="86" x2="24" y1="158.767" y2="158.767"/><polygon fill="#A80036" points="20 205.282 24 215.282 28 205.282 24 209.282" style="stroke:#a80036;stroke-width:1.5"/><line style="stroke:#a80036;stroke-width:1.5" x1="24" x2="24" y1="158.767" y2="275.071"/><line style="stroke:#a80036;stroke-width:1.5" x1="24" x2="184.5" y1="275.071" y2="275.071"/><line style="stroke:#a80036;stroke-width:1.5" x1="184.5" x2="184.5" y1="275.071" y2="295.071"/><polygon fill="#A80036" points="180.5 285.071 184.5 295.071 188.5 285.071 184.5 289.071" style="stroke:#a80036;stroke-width:1"/><line style="stroke:#a80036;stroke-width:1.5" x1="184.5" x2="184.5" y1="105.368" y2="146.767"/><polygon fill="#A80036" points="180.5 136.767 184.5 146.767 188.5 136.767 184.5 140.767" style="stroke:#a80036;stroke-width:1"/><text x="188.5" y="126.672" fill="#000" font-family="sans-serif" font-size="11" lengthAdjust="spacingAndGlyphs" textLength="214">Input record and empty output record</text><line style="stroke:#a80036;stroke-width:1.5" x1="184.5" x2="184.5" y1="329.04" y2="349.04"/><polygon fill="#A80036" points="180.5 339.04 184.5 349.04 188.5 339.04 184.5 343.04" style="stroke:#a80036;stroke-width:1"/></g></svg>