<svg xmlns="http://www.w3.org/2000/svg" xmlns:xlink="http://www.w3.org/1999/xlink" width="95" height="339" contentScriptType="application/ecmascript" contentStyleType="text/css" style="width:95px;height:339px" preserveAspectRatio="none" version="1.1" viewBox="0 0 95 339" zoomAndPan="magnify"><defs><filter id="fn0qz365xlp2q" width="300%" height="300%" x="-1" y="-1"><feGaussianBlur result="blurOut" stdDeviation="2"/><feColorMatrix in="blurOut" result="blurOut2" type="matrix" values="0 0 0 0 0 0 0 0 0 0 0 0 0 0 0 0 0 0 .4 0"/><feOffset dx="4" dy="4" in="blurOut2" result="blurOut3"/><feBlend in="SourceGraphic" in2="blurOut3" mode="normal"/></filter></defs><g><ellipse cx="44.25" cy="18" fill="#000" filter="url(#fn0qz365xlp2q)" rx="10" ry="10" style="stroke:none;stroke-width:1"/><rect style="stroke:#a80036;stroke-width:1.5" width="62" height="50" x="13.25" y="88" fill="#FEFECE" filter="url(#fn0qz365xlp2q)" rx="12.5" ry="12.5"/><line style="stroke:#a80036;stroke-width:1.5" x1="13.25" x2="75.25" y1="114.297" y2="114.297"/><text x="23.25" y="105.995" fill="#000" font-family="sans-serif" font-size="14" lengthAdjust="spacingAndGlyphs" textLength="42">getter</text><rect style="stroke:#a80036;stroke-width:1.5" width="77" height="50" x="6" y="198" fill="#FEFECE" filter="url(#fn0qz365xlp2q)" rx="12.5" ry="12.5"/><line style="stroke:#a80036;stroke-width:1.5" x1="6" x2="83" y1="224.297" y2="224.297"/><text x="16" y="215.995" fill="#000" font-family="sans-serif" font-size="14" lengthAdjust="spacingAndGlyphs" textLength="57">validator</text><ellipse cx="44.25" cy="318" fill="none" filter="url(#fn0qz365xlp2q)" rx="10" ry="10" style="stroke:#000;stroke-width:1"/><ellipse cx="44.75" cy="318.5" fill="#000" rx="6" ry="6" style="stroke:none;stroke-width:1"/><path id="*start-getter" fill="none" d="M44.25,28.257 C44.25,40.856 44.25,63.981 44.25,82.743" style="stroke:#a80036;stroke-width:1"/><polygon fill="#A80036" points="44.25 87.907 48.25 78.907 44.25 82.907 40.25 78.907 44.25 87.907" style="stroke:#a80036;stroke-width:1"/><path id="getter-validator" fill="none" d="M44.25,138.237 C44.25,154.357 44.25,175.621 44.25,192.691" style="stroke:#a80036;stroke-width:1"/><polygon fill="#A80036" points="44.25 197.844 48.25 188.844 44.25 192.844 40.25 188.844 44.25 197.844" style="stroke:#a80036;stroke-width:1"/><path id="validator-*end" fill="none" d="M44.25,248.4347 C44.25,265.5384 44.25,287.827 44.25,302.2736" style="stroke:#a80036;stroke-width:1"/><polygon fill="#A80036" points="44.25 307.582 48.25 298.582 44.25 302.582 40.25 298.582 44.25 307.582" style="stroke:#a80036;stroke-width:1"/></g></svg>